# 3ds Max Wavefront OBJ Exporter v0.97b - (c)2007 guruware
# File Created: 14.11.2020 20:29:49

mtllib arrow_head.mtl

#
# object Plane008
#

v  0.3380 0.0052 -0.0000
v  0.1141 0.0388 -0.0000
v  0.1141 0.0194 -0.0000
v  0.3380 0.0026 -0.0000
v  0.0007 0.0565 -0.0000
v  0.0257 0.0168 -0.0000
v  -0.1098 0.0819 -0.0000
v  -0.2704 0.1251 -0.0000
v  -0.2704 0.0626 -0.0000
v  -0.1098 0.0410 -0.0000
v  -0.3591 0.0863 -0.0000
v  -0.3410 0.0397 -0.0000
v  0.1141 0.0000 -0.0000
v  0.3380 0.0000 -0.0000
v  0.0422 0.0000 -0.0000
v  -0.2704 -0.0000 -0.0000
v  -0.1098 -0.0000 -0.0000
v  -0.3591 -0.0000 -0.0000
v  0.1141 -0.0194 0.0000
v  0.3380 -0.0026 0.0000
v  0.0257 -0.0168 0.0000
v  -0.2704 -0.0626 0.0000
v  -0.1098 -0.0410 0.0000
v  -0.3419 -0.0344 0.0000
v  0.1141 -0.0388 0.0000
v  0.3380 -0.0052 0.0000
v  0.0007 -0.0565 0.0000
v  -0.2704 -0.1251 0.0000
v  -0.1098 -0.0819 0.0000
v  -0.3591 -0.0863 0.0000
v  -0.4478 0.0474 -0.0000
v  -0.4478 0.0237 -0.0000
v  -0.4478 -0.0000 -0.0000
v  -0.4478 -0.0237 0.0000
v  -0.4478 -0.0474 0.0000
# 35 vertices

vn 0.0000 0.0000 1.0000
vn -0.0000 0.0000 1.0000
# 2 vertex normals

vt 0.0251 0.1583 0.0000
vt 0.3001 0.1343 0.0000
vt 0.2987 0.1579 0.0000
vt 0.0248 0.1631 0.0000
vt 0.4390 0.1199 0.0000
vt 0.4063 0.1666 0.0000
vt 0.5751 0.0957 0.0000
vt 0.7731 0.0530 0.0000
vt 0.7693 0.1291 0.0000
vt 0.5726 0.1455 0.0000
vt 0.8786 0.1056 0.0000
vt 0.8538 0.1611 0.0000
vt 0.2975 0.1816 0.0000
vt 0.0245 0.1678 0.0000
vt 0.3851 0.1860 0.0000
vt 0.4550 0.4195 0.0000
vt 0.6307 0.3959 0.0000
vt 0.6307 0.4643 0.0000
vt 0.4550 0.4643 0.0000
vt 0.7080 0.4209 0.0000
vt 0.7278 0.4643 0.0000
vt 0.2964 0.2053 0.0000
vt 0.0243 0.1726 0.0000
vt 0.4042 0.2075 0.0000
vt 0.6307 0.5328 0.0000
vt 0.4550 0.5091 0.0000
vt 0.7089 0.5019 0.0000
vt 0.2953 0.2289 0.0000
vt 0.0241 0.1774 0.0000
vt 0.4321 0.2572 0.0000
vt 0.5676 0.2451 0.0000
vt 0.7616 0.2812 0.0000
vt 0.7578 0.3573 0.0000
vt 0.5651 0.2949 0.0000
vt 0.8503 0.2513 0.0000
vt 0.8681 0.3155 0.0000
vt 0.9841 0.1583 0.0000
vt 0.9827 0.1871 0.0000
vt 0.9812 0.2160 0.0000
vt 0.8733 0.2105 0.0000
vt 0.9798 0.2448 0.0000
vt 0.9783 0.2736 0.0000
vt 0.3068 0.4459 0.0000
vt 0.2887 0.4643 0.0000
vt 0.3068 0.4827 0.0000
# 45 texture coords

o Plane008
g Plane008
usemtl Material__122
s 1
f 1/1/1 2/2/1 3/3/1 
f 3/3/1 4/4/1 1/1/1 
f 2/2/1 5/5/1 6/6/2 
f 6/6/2 3/3/1 2/2/1 
f 7/7/1 8/8/2 9/9/2 
f 9/9/2 10/10/1 7/7/1 
f 9/9/2 8/8/2 11/11/2 
f 11/11/2 12/12/2 9/9/2 
f 4/4/1 3/3/1 13/13/1 
f 13/13/1 14/14/2 4/4/1 
f 3/3/1 6/6/2 15/15/2 
f 15/15/2 13/13/1 3/3/1 
f 10/16/1 9/17/2 16/18/1 
f 16/18/1 17/19/2 10/16/1 
f 16/18/1 9/17/2 12/20/2 
f 12/20/2 18/21/2 16/18/1 
f 14/14/2 13/13/1 19/22/2 
f 19/22/2 20/23/2 14/14/2 
f 19/22/2 13/13/1 15/15/2 
f 15/15/2 21/24/1 19/22/2 
f 17/19/2 16/18/1 22/25/1 
f 22/25/1 23/26/2 17/19/2 
f 16/18/1 18/21/2 24/27/1 
f 24/27/1 22/25/1 16/18/1 
f 20/23/2 19/22/2 25/28/2 
f 25/28/2 26/29/2 20/23/2 
f 25/28/2 19/22/2 21/24/1 
f 21/24/1 27/30/2 25/28/2 
f 23/31/2 22/32/1 28/33/1 
f 28/33/1 29/34/2 23/31/2 
f 22/32/1 24/35/1 30/36/1 
f 30/36/1 28/33/1 22/32/1 
f 31/37/2 32/38/2 12/12/2 
f 12/12/2 11/11/2 31/37/2 
f 32/38/2 33/39/2 18/40/2 
f 18/40/2 12/12/2 32/38/2 
f 18/40/2 33/39/2 34/41/1 
f 34/41/1 24/35/1 18/40/2 
f 24/35/1 34/41/1 35/42/1 
f 35/42/1 30/36/1 24/35/1 
f 5/5/1 7/7/1 10/10/1 
f 10/10/1 6/6/2 5/5/1 
f 6/43/2 10/16/1 17/19/2 
f 17/19/2 15/44/2 6/43/2 
f 17/19/2 23/26/2 21/45/1 
f 21/45/1 15/44/2 17/19/2 
f 23/31/2 29/34/2 27/30/2 
f 27/30/2 21/24/1 23/31/2 
# 48 faces

