# 3ds Max Wavefront OBJ Exporter v0.97b - (c)2007 guruware
# File Created: 14.11.2020 23:41:05

mtllib bow+arrow.mtl

#
# object Plane004
#

v  0.3612 -0.2984 0.0000
v  0.1788 -0.2984 0.0000
v  0.4937 -0.4970 0.0000
v  -0.0218 -0.4970 0.0000
v  0.5691 -1.2327 0.0000
v  0.2750 -1.2701 0.0000
v  0.2104 -1.4168 0.0000
v  0.8014 -1.2066 0.0000
v  0.0656 -1.3898 0.0000
v  -0.0305 -1.4579 0.0000
v  -0.7422 -2.7189 0.0000
v  -0.5966 -2.6784 0.0000
v  -0.6452 -2.5925 0.0000
v  -0.5497 -2.5226 0.0000
v  -0.6400 -2.4528 0.0000
v  0.2854 -2.1453 0.0000
v  0.4189 -1.9329 0.0000
v  0.0874 -1.9185 0.0000
v  0.0448 -2.0734 0.0000
v  -0.1834 -2.5382 0.0000
v  0.0664 -2.3630 0.0000
v  -0.0778 -2.2761 0.0000
v  -0.2412 -2.4320 0.0000
v  0.3315 -1.0956 0.0000
v  0.2859 -0.9460 0.0000
v  0.1021 -0.9968 0.0000
v  0.1785 -1.1621 0.0000
v  0.0095 -1.1633 0.0000
v  0.5145 -1.7205 0.0000
v  0.5909 -1.4178 0.0000
v  0.1118 -1.5798 0.0000
v  0.1299 -1.7636 0.0000
v  -0.4511 -2.6379 0.0000
v  -0.4379 -2.5261 0.0000
v  0.4321 -1.1949 0.0000
v  0.1065 -1.3108 0.0000
v  0.0828 -1.2273 0.0000
v  0.2873 -0.7963 0.0000
v  0.3615 -0.6467 0.0000
v  0.1038 -0.6636 0.0000
v  0.1277 -0.8302 0.0000
v  0.3851 -0.0000 -0.0000
v  0.3787 -0.0000 -0.0000
v  0.1887 -0.0000 -0.0000
v  0.3612 0.2984 -0.0000
v  0.4937 0.4970 -0.0000
v  0.1788 0.2984 -0.0000
v  -0.0218 0.4970 -0.0000
v  0.5691 1.2327 -0.0000
v  0.8014 1.2066 -0.0000
v  0.2104 1.4168 -0.0000
v  0.2750 1.2701 -0.0000
v  -0.0305 1.4579 -0.0000
v  0.0656 1.3898 -0.0000
v  -0.7422 2.7189 -0.0000
v  -0.6452 2.5925 -0.0000
v  -0.5966 2.6784 -0.0000
v  -0.6400 2.4528 -0.0000
v  -0.5497 2.5226 -0.0000
v  0.2854 2.1453 -0.0000
v  0.0874 1.9185 -0.0000
v  0.4189 1.9329 -0.0000
v  0.0448 2.0734 -0.0000
v  -0.1834 2.5382 -0.0000
v  -0.0778 2.2761 -0.0000
v  0.0664 2.3630 -0.0000
v  -0.2412 2.4320 -0.0000
v  0.3316 1.0956 -0.0000
v  0.1021 0.9968 -0.0000
v  0.2859 0.9460 -0.0000
v  0.1785 1.1621 -0.0000
v  0.0095 1.1633 -0.0000
v  0.5145 1.7205 -0.0000
v  0.1118 1.5798 -0.0000
v  0.5909 1.4178 -0.0000
v  0.1299 1.7636 -0.0000
v  -0.4511 2.6379 -0.0000
v  -0.4379 2.5261 -0.0000
v  0.4321 1.1949 -0.0000
v  0.1065 1.3108 -0.0000
v  0.0828 1.2273 -0.0000
v  0.2873 0.7963 -0.0000
v  0.1038 0.6636 -0.0000
v  0.3615 0.6467 -0.0000
v  0.1277 0.8302 -0.0000
v  2.9054 0.0147 -0.0000
v  2.6360 0.0782 -0.0000
v  2.6360 0.0416 -0.0000
v  2.9054 0.0098 -0.0000
v  2.4996 0.1116 -0.0000
v  2.5296 0.0367 -0.0000
v  2.3666 0.1597 -0.0000
v  2.1733 0.2413 -0.0000
v  2.1733 0.1231 -0.0000
v  2.3666 0.0823 -0.0000
v  2.0666 0.1679 -0.0000
v  2.0884 0.0799 -0.0000
v  2.6360 0.0049 -0.0000
v  2.9054 0.0049 -0.0000
v  2.5495 0.0049 -0.0000
v  2.1733 0.0049 -0.0000
v  2.3666 0.0049 -0.0000
v  2.0666 0.0049 -0.0000
v  2.6360 -0.0317 0.0000
v  2.9054 0.0000 0.0000
v  2.5296 -0.0269 0.0000
v  2.1733 -0.1133 0.0000
v  2.3666 -0.0725 0.0000
v  2.0874 -0.0600 0.0000
v  2.6360 -0.0684 0.0000
v  2.9054 -0.0049 0.0000
v  2.4996 -0.1017 0.0000
v  2.1733 -0.2314 0.0000
v  2.3666 -0.1499 0.0000
v  2.0666 -0.1580 0.0000
v  1.9599 0.0945 -0.0000
v  1.9599 0.0497 -0.0000
v  1.9599 0.0049 -0.0000
v  1.9599 -0.0399 0.0000
v  1.9599 -0.0846 0.0000
v  2.0299 0.0407 -0.0000
v  0.9983 0.0407 -0.0000
v  0.9983 0.0255 -0.0000
v  2.0299 0.0255 -0.0000
v  -0.0333 0.0407 -0.0000
v  -0.0333 0.0255 -0.0000
v  -1.0649 0.0407 -0.0000
v  -1.0649 0.0255 -0.0000
v  -1.7240 0.0489 -0.0000
v  -1.7240 0.0294 -0.0000
v  0.9983 0.0102 -0.0000
v  2.0299 0.0102 -0.0000
v  -0.0333 0.0102 -0.0000
v  -1.0649 0.0102 -0.0000
v  -1.7240 0.0100 -0.0000
v  0.9983 -0.0050 0.0000
v  2.0299 -0.0050 0.0000
v  -0.0333 -0.0050 0.0000
v  -1.0649 -0.0050 0.0000
v  -1.7240 -0.0094 0.0000
v  0.9983 -0.0203 0.0000
v  2.0299 -0.0203 0.0000
v  -0.0333 -0.0203 0.0000
v  -1.0649 -0.0203 0.0000
v  -1.7240 -0.0288 0.0000
v  -1.7966 0.1061 -0.0000
v  -1.7966 0.0580 -0.0000
v  -1.7966 0.0099 -0.0000
v  -1.7966 -0.0382 0.0000
v  -1.7966 -0.0863 0.0000
v  -2.1172 0.1065 -0.0000
v  -2.0499 0.0581 -0.0000
v  -1.9810 0.0098 -0.0000
v  -2.0499 -0.0385 0.0000
v  -2.1172 -0.0869 0.0000
# 155 vertices

vn 0.0000 0.0000 1.0000
vn -0.0000 0.0000 1.0000
# 2 vertex normals

vt 0.4887 0.8416 0.0000
vt 0.4037 0.8416 0.0000
vt 0.5503 0.7491 0.0000
vt 0.3103 0.7491 0.0000
vt 0.5413 0.4300 0.0000
vt 0.4437 0.4208 0.0000
vt 0.4208 0.3730 0.0000
vt 0.6184 0.4363 0.0000
vt 0.3733 0.3834 0.0000
vt 0.3408 0.3619 0.0000
vt 0.1831 0.0333 0.0000
vt 0.2180 0.0357 0.0000
vt 0.2110 0.0575 0.0000
vt 0.2360 0.0689 0.0000
vt 0.2188 0.0890 0.0000
vt 0.4714 0.1514 0.0000
vt 0.5114 0.2036 0.0000
vt 0.4251 0.2154 0.0000
vt 0.4103 0.1759 0.0000
vt 0.3394 0.0600 0.0000
vt 0.4089 0.0997 0.0000
vt 0.3733 0.1259 0.0000
vt 0.3269 0.0891 0.0000
vt 0.4698 0.4991 0.0000
vt 0.4510 0.5549 0.0000
vt 0.3824 0.5338 0.0000
vt 0.4129 0.4724 0.0000
vt 0.3493 0.4701 0.0000
vt 0.5415 0.2568 0.0000
vt 0.5688 0.3341 0.0000
vt 0.4397 0.3033 0.0000
vt 0.4400 0.2549 0.0000
vt 0.2671 0.0404 0.0000
vt 0.2732 0.0693 0.0000
vt 0.2530 0.0381 0.0000
vt 0.2612 0.0629 0.0000
vt 0.5466 0.3687 0.0000
vt 0.3866 0.3201 0.0000
vt 0.5087 0.4628 0.0000
vt 0.4504 0.4328 0.0000
vt 0.3874 0.4156 0.0000
vt 0.3775 0.4468 0.0000
vt 0.4964 0.4440 0.0000
vt 0.3876 0.4091 0.0000
vt 0.4499 0.6113 0.0000
vt 0.4763 0.6684 0.0000
vt 0.3794 0.6593 0.0000
vt 0.3902 0.5968 0.0000
vt 0.4888 0.6794 0.0000
vt 0.3688 0.6716 0.0000
vt 0.0611 0.4537 0.0000
vt 0.0448 0.2232 0.0000
vt 0.0498 0.2232 0.0000
vt 0.2020 0.4550 0.0000
vt 0.1965 0.2245 0.0000
vt 0.8681 0.0232 0.0000
vt 0.9259 0.1099 -0.0000
vt 0.7885 0.0232 0.0000
vt 0.7010 0.1099 -0.0000
vt 0.8975 0.4994 0.0000
vt 0.9927 0.4917 0.0000
vt 0.7485 0.5700 0.0000
vt 0.7768 0.5109 0.0000
vt 0.6496 0.5837 0.0000
vt 0.6897 0.5571 0.0000
vt 0.4762 0.9549 0.0000
vt 0.5063 0.9197 0.0000
vt 0.5191 0.9454 0.0000
vt 0.5100 0.8791 0.0000
vt 0.5351 0.9008 0.0000
vt 0.7942 0.8076 0.0000
vt 0.7437 0.7415 0.0000
vt 0.8348 0.7515 0.0000
vt 0.7292 0.7835 0.0000
vt 0.6579 0.9076 0.0000
vt 0.6917 0.8372 0.0000
vt 0.7299 0.8637 0.0000
vt 0.6438 0.8773 0.0000
vt 0.8590 0.4038 0.0000
vt 0.7540 0.3594 0.0000
vt 0.8377 0.3357 0.0000
vt 0.7894 0.4345 0.0000
vt 0.7123 0.4356 0.0000
vt 0.8650 0.6946 0.0000
vt 0.7565 0.6486 0.0000
vt 0.8915 0.6125 0.0000
vt 0.7582 0.6996 0.0000
vt 0.5823 0.9302 0.0000
vt 0.5879 0.8997 0.0000
vt 0.5620 0.9359 0.0000
vt 0.5676 0.9036 0.0000
vt 0.9040 0.5753 0.0000
vt 0.7062 0.6353 0.0000
vt 0.9051 0.4487 0.0000
vt 0.8337 0.4835 0.0000
vt 0.7570 0.5026 0.0000
vt 0.7459 0.4646 0.0000
vt 0.9677 0.4655 0.0000
vt 0.7074 0.5253 0.0000
vt 0.8379 0.2674 0.0000
vt 0.7538 0.2075 0.0000
vt 0.8712 0.1990 0.0000
vt 0.7652 0.2834 0.0000
vt 0.8682 0.1752 0.0000
vt 0.7558 0.1826 0.0000
vt 0.2001 0.7166 0.0000
vt 0.0596 0.7278 0.0000
vt 0.1951 0.4858 0.0000
vt 0.2001 0.4854 0.0000
vt 0.0489 0.4975 0.0000
vt 0.0251 0.1583 0.0000
vt 0.3001 0.1343 0.0000
vt 0.2987 0.1579 0.0000
vt 0.0248 0.1631 0.0000
vt 0.4390 0.1199 0.0000
vt 0.4063 0.1666 0.0000
vt 0.5751 0.0957 0.0000
vt 0.7731 0.0530 0.0000
vt 0.7693 0.1291 0.0000
vt 0.5726 0.1455 0.0000
vt 0.8786 0.1056 0.0000
vt 0.8538 0.1611 0.0000
vt 0.2975 0.1816 0.0000
vt 0.0245 0.1678 0.0000
vt 0.3851 0.1860 0.0000
vt 0.4550 0.4195 0.0000
vt 0.6307 0.3959 0.0000
vt 0.6307 0.4643 0.0000
vt 0.4550 0.4643 0.0000
vt 0.7080 0.4209 0.0000
vt 0.7278 0.4643 0.0000
vt 0.2964 0.2053 0.0000
vt 0.0243 0.1726 0.0000
vt 0.4042 0.2075 0.0000
vt 0.6307 0.5328 0.0000
vt 0.4550 0.5091 0.0000
vt 0.7089 0.5019 0.0000
vt 0.2953 0.2289 0.0000
vt 0.0241 0.1774 0.0000
vt 0.4321 0.2572 0.0000
vt 0.5676 0.2451 0.0000
vt 0.7616 0.2812 0.0000
vt 0.7578 0.3573 0.0000
vt 0.5651 0.2949 0.0000
vt 0.8503 0.2513 0.0000
vt 0.8681 0.3155 0.0000
vt 0.9841 0.1583 0.0000
vt 0.9827 0.1871 0.0000
vt 0.9812 0.2160 0.0000
vt 0.8733 0.2105 0.0000
vt 0.9798 0.2448 0.0000
vt 0.9783 0.2736 0.0000
vt 0.3068 0.4459 0.0000
vt 0.2887 0.4643 0.0000
vt 0.3068 0.4827 0.0000
vt 0.2236 0.9251 0.0000
vt 0.2216 0.7220 0.0000
vt 0.2251 0.7219 0.0000
vt 0.2272 0.9251 0.0000
vt 0.2190 0.5186 0.0000
vt 0.2226 0.5185 0.0000
vt 0.2163 0.3150 0.0000
vt 0.2199 0.3149 0.0000
vt 0.2126 0.1612 0.0000
vt 0.2171 0.1612 0.0000
vt 0.2286 0.7219 0.0000
vt 0.2307 0.9250 0.0000
vt 0.2261 0.5185 0.0000
vt 0.2234 0.3149 0.0000
vt 0.2216 0.1611 0.0000
vt 0.2322 0.7219 0.0000
vt 0.2343 0.9250 0.0000
vt 0.2297 0.5184 0.0000
vt 0.2270 0.3148 0.0000
vt 0.2262 0.1611 0.0000
vt 0.2357 0.7218 0.0000
vt 0.2378 0.9250 0.0000
vt 0.2332 0.5184 0.0000
vt 0.2305 0.3148 0.0000
vt 0.2307 0.1610 0.0000
vt 0.6417 0.5778 0.0000
vt 0.6406 0.4799 0.0000
vt 0.6810 0.5110 0.0000
vt 0.6580 0.5904 0.0000
vt 0.2102 0.1443 0.0000
vt 0.2215 0.1442 0.0000
vt 0.2327 0.1440 0.0000
vt 0.4658 0.2904 0.0000
vt 0.4255 0.3215 0.0000
vt 0.4267 0.2235 0.0000
vt 0.4429 0.2109 0.0000
vt 0.8477 0.2109 0.0000
vt 0.8447 0.2986 0.0000
vt 0.2095 0.0852 0.0000
vt 0.2210 0.1011 0.0000
vt 0.2321 0.0849 0.0000
vt 0.6296 0.5028 0.0000
vt 0.6327 0.5905 0.0000
# 198 texture coords

o Plane004
g Plane004
usemtl Material__114
s 1
f 1/1/1 2/2/1 3/3/2 
f 3/3/2 2/2/1 4/4/1 
f 5/5/2 6/6/2 7/7/2 
f 7/7/2 8/8/2 5/5/2 
f 7/7/2 9/9/2 10/10/2 
f 11/11/1 12/12/1 13/13/1 
f 13/13/1 14/14/1 15/15/1 
f 16/16/1 17/17/1 18/18/1 
f 16/16/1 18/18/1 19/19/1 
f 20/20/2 21/21/2 22/22/2 
f 20/20/2 22/22/2 23/23/2 
f 24/24/2 25/25/2 26/26/2 
f 24/24/2 26/26/2 27/27/2 
f 27/27/2 26/26/2 28/28/2 
f 29/29/2 30/30/2 31/31/2 
f 29/29/2 31/31/2 32/32/2 
f 33/33/2 20/20/2 34/34/2 
f 34/34/2 20/20/2 23/23/2 
f 21/21/2 16/16/1 22/22/2 
f 22/22/2 16/16/1 19/19/1 
f 33/35/2 34/36/2 13/13/1 
f 13/13/1 12/12/1 33/35/2 
f 13/13/1 34/36/2 14/14/1 
f 17/17/1 29/29/2 18/18/1 
f 18/18/1 29/29/2 32/32/2 
f 30/37/2 8/8/2 7/7/2 
f 30/37/2 7/7/2 31/38/2 
f 31/38/2 7/7/2 10/10/2 
f 35/39/2 24/24/2 6/40/2 
f 6/40/2 27/27/2 36/41/2 
f 36/41/2 27/27/2 37/42/1 
f 5/5/2 35/43/2 6/6/2 
f 6/6/2 36/44/2 7/7/2 
f 7/7/2 36/44/2 9/9/2 
f 6/40/2 24/24/2 27/27/2 
f 27/27/2 28/28/2 37/42/1 
f 38/45/2 39/46/2 40/47/2 
f 38/45/2 40/47/2 41/48/2 
f 25/25/2 38/45/2 26/26/2 
f 26/26/2 38/45/2 41/48/2 
f 39/49/2 3/3/2 40/50/2 
f 40/50/2 3/3/2 4/4/1 
f 1/51/1 42/52/2 43/53/2 
f 43/53/2 2/54/1 1/51/1 
f 2/54/1 43/53/2 44/55/1 
f 45/56/1 46/57/2 47/58/1 
f 46/57/2 48/59/1 47/58/1 
f 49/60/2 50/61/2 51/62/2 
f 51/62/2 52/63/2 49/60/2 
f 51/62/2 53/64/2 54/65/2 
f 55/66/1 56/67/1 57/68/1 
f 56/67/1 58/69/1 59/70/1 
f 60/71/1 61/72/1 62/73/1 
f 60/71/1 63/74/1 61/72/1 
f 64/75/2 65/76/2 66/77/2 
f 64/75/2 67/78/2 65/76/2 
f 68/79/2 69/80/2 70/81/2 
f 68/79/2 71/82/2 69/80/2 
f 71/82/2 72/83/2 69/80/2 
f 73/84/2 74/85/2 75/86/2 
f 73/84/2 76/87/2 74/85/2 
f 77/88/2 78/89/2 64/75/2 
f 78/89/2 67/78/2 64/75/2 
f 66/77/2 65/76/2 60/71/1 
f 65/76/2 63/74/1 60/71/1 
f 77/90/2 57/68/1 56/67/1 
f 56/67/1 78/91/2 77/90/2 
f 56/67/1 59/70/1 78/91/2 
f 62/73/1 61/72/1 73/84/2 
f 61/72/1 76/87/2 73/84/2 
f 75/92/2 51/62/2 50/61/2 
f 75/92/2 74/93/2 51/62/2 
f 74/93/2 53/64/2 51/62/2 
f 79/94/2 52/95/2 68/79/2 
f 52/95/2 80/96/2 71/82/2 
f 80/96/2 81/97/1 71/82/2 
f 49/98/2 52/95/2 79/94/2 
f 52/63/2 51/62/2 80/99/2 
f 51/62/2 54/65/2 80/99/2 
f 52/95/2 71/82/2 68/79/2 
f 71/82/2 81/97/1 72/83/2 
f 82/100/2 83/101/2 84/102/2 
f 82/100/2 85/103/2 83/101/2 
f 70/81/2 69/80/2 82/100/2 
f 69/80/2 85/103/2 82/100/2 
f 84/104/2 83/105/2 46/57/2 
f 83/105/2 48/59/1 46/57/2 
f 45/106/1 47/107/1 43/108/2 
f 43/108/2 42/109/2 45/106/1 
f 47/107/1 44/110/1 43/108/2 
usemtl Material__122
f 86/111/1 87/112/1 88/113/1 
f 88/113/1 89/114/1 86/111/1 
f 87/112/1 90/115/1 91/116/2 
f 91/116/2 88/113/1 87/112/1 
f 92/117/1 93/118/2 94/119/2 
f 94/119/2 95/120/1 92/117/1 
f 94/119/2 93/118/2 96/121/2 
f 96/121/2 97/122/2 94/119/2 
f 89/114/1 88/113/1 98/123/1 
f 98/123/1 99/124/2 89/114/1 
f 88/113/1 91/116/2 100/125/2 
f 100/125/2 98/123/1 88/113/1 
f 95/126/1 94/127/2 101/128/1 
f 101/128/1 102/129/2 95/126/1 
f 101/128/1 94/127/2 97/130/2 
f 97/130/2 103/131/2 101/128/1 
f 99/124/2 98/123/1 104/132/2 
f 104/132/2 105/133/2 99/124/2 
f 104/132/2 98/123/1 100/125/2 
f 100/125/2 106/134/1 104/132/2 
f 102/129/2 101/128/1 107/135/1 
f 107/135/1 108/136/2 102/129/2 
f 101/128/1 103/131/2 109/137/1 
f 109/137/1 107/135/1 101/128/1 
f 105/133/2 104/132/2 110/138/2 
f 110/138/2 111/139/2 105/133/2 
f 110/138/2 104/132/2 106/134/1 
f 106/134/1 112/140/2 110/138/2 
f 108/141/2 107/142/1 113/143/1 
f 113/143/1 114/144/2 108/141/2 
f 107/142/1 109/145/1 115/146/1 
f 115/146/1 113/143/1 107/142/1 
f 116/147/2 117/148/2 97/122/2 
f 97/122/2 96/121/2 116/147/2 
f 117/148/2 118/149/2 103/150/2 
f 103/150/2 97/122/2 117/148/2 
f 103/150/2 118/149/2 119/151/1 
f 119/151/1 109/145/1 103/150/2 
f 109/145/1 119/151/1 120/152/1 
f 120/152/1 115/146/1 109/145/1 
f 90/115/1 92/117/1 95/120/1 
f 95/120/1 91/116/2 90/115/1 
f 91/153/2 95/126/1 102/129/2 
f 102/129/2 100/154/2 91/153/2 
f 102/129/2 108/136/2 106/155/1 
f 106/155/1 100/154/2 102/129/2 
f 108/141/2 114/144/2 112/140/2 
f 112/140/2 106/134/1 108/141/2 
usemtl Material__123
f 121/156/2 122/157/2 123/158/2 
f 123/158/2 124/159/2 121/156/2 
f 122/157/2 125/160/2 126/161/2 
f 126/161/2 123/158/2 122/157/2 
f 125/160/2 127/162/1 128/163/1 
f 128/163/1 126/161/2 125/160/2 
f 127/162/1 129/164/1 130/165/1 
f 130/165/1 128/163/1 127/162/1 
f 124/159/2 123/158/2 131/166/2 
f 131/166/2 132/167/2 124/159/2 
f 123/158/2 126/161/2 133/168/2 
f 133/168/2 131/166/2 123/158/2 
f 126/161/2 128/163/1 134/169/2 
f 134/169/2 133/168/2 126/161/2 
f 128/163/1 130/165/1 135/170/1 
f 135/170/1 134/169/2 128/163/1 
f 132/167/2 131/166/2 136/171/2 
f 136/171/2 137/172/2 132/167/2 
f 131/166/2 133/168/2 138/173/2 
f 138/173/2 136/171/2 131/166/2 
f 133/168/2 134/169/2 139/174/2 
f 139/174/2 138/173/2 133/168/2 
f 134/169/2 135/170/1 140/175/2 
f 140/175/2 139/174/2 134/169/2 
f 137/172/2 136/171/2 141/176/2 
f 141/176/2 142/177/2 137/172/2 
f 136/171/2 138/173/2 143/178/2 
f 143/178/2 141/176/2 136/171/2 
f 138/173/2 139/174/2 144/179/2 
f 144/179/2 143/178/2 138/173/2 
f 139/174/2 140/175/2 145/180/2 
f 145/180/2 144/179/2 139/174/2 
f 129/181/1 146/182/1 147/183/1 
f 147/183/1 130/184/1 129/181/1 
f 130/165/1 147/185/1 148/186/2 
f 148/186/2 135/170/1 130/165/1 
f 148/186/2 149/187/2 140/175/2 
f 140/175/2 135/170/1 148/186/2 
f 149/188/2 150/189/2 145/190/2 
f 145/190/2 140/191/2 149/188/2 
f 146/182/1 151/192/1 152/193/1 
f 152/193/1 147/183/1 146/182/1 
f 147/185/1 152/194/1 153/195/2 
f 153/195/2 148/186/2 147/185/1 
f 153/195/2 154/196/2 149/187/2 
f 149/187/2 148/186/2 153/195/2 
f 154/197/2 155/198/2 150/189/2 
f 150/189/2 149/188/2 154/197/2 
# 186 faces

