# 3ds Max Wavefront OBJ Exporter v0.97b - (c)2007 guruware
# File Created: 14.11.2020 20:17:23

#
# object J
#

v  -0.2011 -1.0798 -0.0000
v  -0.2011 -0.6528 -0.0000
v  -0.9313 -0.6528 -0.0000
v  -0.9313 -1.7357 -0.0000
v  0.4187 -1.7357 -0.0000
v  -0.5916 1.7357 -0.0000
v  -0.5916 1.0055 -0.0000
v  0.2011 1.0055 -0.0000
v  0.9313 1.7357 -0.0000
v  0.2011 -1.0798 -0.0000
v  0.9313 -1.2580 -0.0000
# 11 vertices

vn 0.0000 -0.0000 1.0000
# 1 vertex normals

o J
g J
s 512
f 1//1 2//1 3//1 
f 1//1 3//1 4//1 
f 1//1 4//1 5//1 
f 6//1 7//1 8//1 
f 9//1 6//1 8//1 
f 9//1 8//1 10//1 
f 11//1 9//1 10//1 
f 5//1 11//1 10//1 
f 1//1 5//1 10//1 
# 9 faces

