# 3ds Max Wavefront OBJ Exporter v0.97b - (c)2007 guruware
# File Created: 15.11.2020 17:55:56

mtllib red_balloon.mtl

#
# object Plane007
#

v  -0.4880 0.1914 0.0000
v  -0.4644 0.0829 0.0000
v  -0.2322 0.0829 0.0000
v  -0.2578 0.1914 0.0000
v  0.0000 0.0829 0.0000
v  0.0000 0.1914 0.0000
v  0.2322 0.0829 0.0000
v  0.2578 0.1914 0.0000
v  0.4644 0.0829 0.0000
v  0.4880 0.1914 0.0000
v  -0.4353 0.4016 0.0000
v  -0.4728 0.2916 0.0000
v  -0.2595 0.3106 0.0000
v  -0.2388 0.4305 0.0000
v  0.0000 0.3214 0.0000
v  0.0000 0.4520 0.0000
v  0.2595 0.3106 0.0000
v  0.2388 0.4305 0.0000
v  0.4728 0.2916 0.0000
v  0.4353 0.4016 0.0000
v  -0.3383 0.5287 0.0000
v  -0.1748 0.5468 0.0000
v  0.0000 0.5600 0.0000
v  0.1754 0.5452 0.0000
v  0.3457 0.5254 0.0000
v  -0.1424 0.6178 0.0000
v  0.0000 0.6178 0.0000
v  0.0000 0.6989 0.0000
v  -0.1407 0.6989 0.0000
v  0.1424 0.6178 0.0000
v  0.1407 0.6989 0.0000
v  -0.3679 -0.0399 -0.0000
v  -0.1840 -0.0399 -0.0000
v  0.0000 -0.0399 -0.0000
v  0.1840 -0.0399 -0.0000
v  0.3679 -0.0399 -0.0000
v  -0.2035 -0.1413 -0.0000
v  -0.1018 -0.1413 -0.0000
v  0.0000 -0.1413 -0.0000
v  0.1018 -0.1413 -0.0000
v  0.2035 -0.1413 -0.0000
v  -0.1700 -0.1774 -0.0000
v  -0.0850 -0.1774 -0.0000
v  0.0000 -0.1774 -0.0000
v  0.0850 -0.1774 -0.0000
v  0.1700 -0.1774 -0.0000
v  -0.1745 -0.2656 -0.0000
v  -0.0873 -0.2656 -0.0000
v  0.0000 -0.2656 -0.0000
v  0.0873 -0.2656 -0.0000
v  0.1745 -0.2656 -0.0000
v  -0.2228 -0.4861 -0.0000
v  -0.0964 -0.4861 -0.0000
v  0.0064 -0.4861 -0.0000
v  0.0962 -0.4861 -0.0000
v  0.2227 -0.4861 -0.0000
# 56 vertices

vn -0.0000 -0.0000 1.0000
vn 0.0000 -0.0000 1.0000
# 2 vertex normals

vt 0.2233 0.4992 0.0000
vt 0.2365 0.4383 0.0000
vt 0.3667 0.4383 0.0000
vt 0.3523 0.4992 0.0000
vt 0.4969 0.4383 0.0000
vt 0.4969 0.4992 0.0000
vt 0.6271 0.4383 0.0000
vt 0.6415 0.4992 0.0000
vt 0.7573 0.4383 0.0000
vt 0.7705 0.4992 0.0000
vt 0.2528 0.6170 0.0000
vt 0.2318 0.5554 0.0000
vt 0.3514 0.5660 0.0000
vt 0.3630 0.6332 0.0000
vt 0.4969 0.5721 0.0000
vt 0.4969 0.6453 0.0000
vt 0.6424 0.5660 0.0000
vt 0.6308 0.6332 0.0000
vt 0.7620 0.5554 0.0000
vt 0.7410 0.6170 0.0000
vt 0.3072 0.6883 0.0000
vt 0.3989 0.6985 0.0000
vt 0.4969 0.7059 0.0000
vt 0.5952 0.6975 0.0000
vt 0.6907 0.6864 0.0000
vt 0.4222 0.7714 0.0000
vt 0.5027 0.7714 0.0000
vt 0.5027 0.8172 0.0000
vt 0.4232 0.8172 0.0000
vt 0.5831 0.7714 0.0000
vt 0.5821 0.8172 0.0000
vt 0.2906 0.3695 0.0000
vt 0.3938 0.3695 0.0000
vt 0.4969 0.3694 0.0000
vt 0.6001 0.3694 0.0000
vt 0.7032 0.3694 0.0000
vt 0.3828 0.3126 0.0000
vt 0.4399 0.3126 0.0000
vt 0.4969 0.3126 0.0000
vt 0.5540 0.3126 0.0000
vt 0.6110 0.3126 0.0000
vt 0.4016 0.2924 0.0000
vt 0.4492 0.2924 0.0000
vt 0.4969 0.2924 0.0000
vt 0.5446 0.2924 0.0000
vt 0.5922 0.2924 0.0000
vt 0.3990 0.2429 0.0000
vt 0.4480 0.2429 0.0000
vt 0.4969 0.2429 0.0000
vt 0.5458 0.2429 0.0000
vt 0.5948 0.2429 0.0000
vt 0.4457 0.2317 0.0000
vt 0.3940 0.2317 0.0000
vt 0.3653 0.1011 0.0000
vt 0.4403 0.1011 0.0000
vt 0.4974 0.2317 0.0000
vt 0.5012 0.1011 0.0000
vt 0.5491 0.2317 0.0000
vt 0.5544 0.1011 0.0000
vt 0.6008 0.2317 0.0000
vt 0.6293 0.1011 0.0000
vt 0.5768 0.7382 0.0000
vt 0.4969 0.7382 0.0000
vt 0.4170 0.7382 0.0000
# 64 texture coords

o Plane007
g Plane007
usemtl Material__175
s 1
f 1/1/1 2/2/1 3/3/2 
f 3/3/2 4/4/2 1/1/1 
f 4/4/2 3/3/2 5/5/2 
f 5/5/2 6/6/1 4/4/2 
f 5/5/2 7/7/1 8/8/1 
f 8/8/1 6/6/1 5/5/2 
f 7/7/1 9/9/2 10/10/1 
f 10/10/1 8/8/1 7/7/1 
f 11/11/2 12/12/2 13/13/2 
f 13/13/2 14/14/2 11/11/2 
f 14/14/2 13/13/2 15/15/1 
f 15/15/1 16/16/1 14/14/2 
f 15/15/1 17/17/1 18/18/1 
f 18/18/1 16/16/1 15/15/1 
f 17/17/1 19/19/1 20/20/1 
f 20/20/1 18/18/1 17/17/1 
f 21/21/2 11/11/2 14/14/2 
f 14/14/2 22/22/2 21/21/2 
f 22/22/2 14/14/2 16/16/1 
f 16/16/1 23/23/1 22/22/2 
f 16/16/1 18/18/1 24/24/1 
f 24/24/1 23/23/1 16/16/1 
f 18/18/1 20/20/1 25/25/1 
f 25/25/1 24/24/1 18/18/1 
f 26/26/2 27/27/2 28/28/2 
f 28/28/2 29/29/2 26/26/2 
f 27/27/2 30/30/1 31/31/2 
f 31/31/2 28/28/2 27/27/2 
f 2/2/1 32/32/1 33/33/1 
f 33/33/1 3/3/2 2/2/1 
f 3/3/2 33/33/1 34/34/2 
f 34/34/2 5/5/2 3/3/2 
f 34/34/2 35/35/1 7/7/1 
f 7/7/1 5/5/2 34/34/2 
f 35/35/1 36/36/2 9/9/2 
f 9/9/2 7/7/1 35/35/1 
f 32/32/1 37/37/2 38/38/1 
f 38/38/1 33/33/1 32/32/1 
f 33/33/1 38/38/1 39/39/2 
f 39/39/2 34/34/2 33/33/1 
f 39/39/2 40/40/2 35/35/1 
f 35/35/1 34/34/2 39/39/2 
f 40/40/2 41/41/2 36/36/2 
f 36/36/2 35/35/1 40/40/2 
f 37/37/2 42/42/2 43/43/2 
f 43/43/2 38/38/1 37/37/2 
f 38/38/1 43/43/2 44/44/2 
f 44/44/2 39/39/2 38/38/1 
f 44/44/2 45/45/2 40/40/2 
f 40/40/2 39/39/2 44/44/2 
f 45/45/2 46/46/2 41/41/2 
f 41/41/2 40/40/2 45/45/2 
f 42/42/2 47/47/2 48/48/2 
f 48/48/2 43/43/2 42/42/2 
f 43/43/2 48/48/2 49/49/2 
f 49/49/2 44/44/2 43/43/2 
f 49/49/2 50/50/2 45/45/2 
f 45/45/2 44/44/2 49/49/2 
f 50/50/2 51/51/2 46/46/2 
f 46/46/2 45/45/2 50/50/2 
s off
f 48/52/2 47/53/2 52/54/2 
f 52/54/2 53/55/2 48/52/2 
f 49/56/2 48/52/2 53/55/2 
f 53/55/2 54/57/2 49/56/2 
f 50/58/2 49/56/2 54/57/2 
f 54/57/2 55/59/2 50/58/2 
f 51/60/2 50/58/2 55/59/2 
f 55/59/2 56/61/2 51/60/2 
s 1
f 25/25/1 30/62/1 24/24/1 
f 30/62/1 27/63/2 23/23/1 
f 23/23/1 24/24/1 30/62/1 
f 23/23/1 27/63/2 26/64/2 
f 26/64/2 22/22/2 23/23/1 
f 22/22/2 26/64/2 21/21/2 
f 12/12/2 1/1/1 4/4/2 
f 4/4/2 13/13/2 12/12/2 
f 13/13/2 4/4/2 6/6/1 
f 6/6/1 15/15/1 13/13/2 
f 6/6/1 8/8/1 17/17/1 
f 17/17/1 15/15/1 6/6/1 
f 8/8/1 10/10/1 19/19/1 
f 19/19/1 17/17/1 8/8/1 
# 82 faces

