# 3ds Max Wavefront OBJ Exporter v0.97b - (c)2007 guruware
# File Created: 14.11.2020 20:20:13

#
# object Y
#

v  -0.3771 -0.4081 -0.0000
v  -0.8263 -1.7357 -0.0000
v  -0.0672 -1.7357 -0.0000
v  1.1049 1.7357 -0.0000
v  0.3484 1.7357 -0.0000
v  -0.0168 0.6602 -0.0000
v  -0.3531 1.7357 -0.0000
v  -1.1049 1.7357 -0.0000
# 8 vertices

vn 0.0000 -0.0000 1.0000
# 1 vertex normals

o Y
g Y
s 512
f 1//1 2//1 3//1 
f 1//1 3//1 4//1 
f 4//1 5//1 6//1 
f 1//1 4//1 6//1 
f 1//1 6//1 7//1 
f 1//1 7//1 8//1 
# 6 faces

