# 3ds Max Wavefront OBJ Exporter v0.97b - (c)2007 guruware
# File Created: 15.11.2020 18:06:32

mtllib yellow_balloon.mtl

#
# object Plane006
#

v  -0.0995 -0.1729 -0.0000
v  -0.0658 -0.3306 -0.0000
v  -0.0659 -0.1729 -0.0000
v  0.0660 -0.1729 -0.0000
v  0.0635 -0.3310 -0.0000
v  0.0986 -0.1729 -0.0000
v  -0.2566 0.2832 0.0000
v  -0.3661 0.2808 0.0000
v  -0.3328 0.1901 0.0000
v  -0.2712 0.1915 0.0000
v  -0.0510 0.1784 0.0000
v  -0.0458 0.2879 0.0000
v  0.0502 0.2901 0.0000
v  0.0571 0.1796 0.0000
v  0.2417 0.1985 0.0000
v  0.2035 0.2935 0.0000
v  0.3345 0.2006 0.0000
v  0.3684 0.2971 0.0000
v  -0.0322 -0.5809 -0.0000
v  0.0366 -0.5809 -0.0000
v  0.0328 -0.3451 -0.0000
v  -0.0317 -0.3451 -0.0000
v  0.0576 0.0398 -0.0000
v  -0.0528 0.0398 -0.0000
v  -0.0458 0.4568 0.0000
v  0.0502 0.4568 0.0000
v  0.0680 0.5322 0.0000
v  -0.0634 0.5333 0.0000
v  -0.3401 0.6130 0.0000
v  -0.3689 0.5349 0.0000
v  -0.2608 0.5342 0.0000
v  -0.2364 0.6117 0.0000
v  -0.0795 0.6097 0.0000
v  0.0835 0.6077 0.0000
v  0.2002 0.5315 0.0000
v  0.2043 0.6062 0.0000
v  0.3670 0.5307 0.0000
v  0.3358 0.6045 0.0000
v  0.1067 0.7857 0.0000
v  -0.1023 0.7857 0.0000
v  -0.1023 0.7129 0.0000
v  0.1067 0.7129 0.0000
v  -0.1026 -0.7857 -0.0000
v  0.1070 -0.7857 -0.0000
v  0.3967 0.3772 0.0000
v  0.2068 0.3753 0.0000
v  0.0532 0.3735 0.0000
v  -0.0474 0.3724 0.0000
v  -0.2795 0.3699 0.0000
v  -0.3942 0.3686 0.0000
v  -0.2603 0.0676 0.0000
v  0.2586 0.0699 0.0000
v  0.3871 0.4568 0.0000
v  0.1899 0.4568 0.0000
v  -0.2778 0.4568 0.0000
v  -0.3871 0.4568 0.0000
v  0.2130 0.6955 0.0000
v  -0.2145 0.6932 0.0000
v  0.1302 -0.1037 -0.0000
v  0.0598 -0.1112 -0.0000
v  -0.0586 -0.1112 -0.0000
v  -0.1312 -0.1042 -0.0000
v  0.1861 -0.0345 -0.0000
v  0.0648 -0.0495 -0.0000
v  -0.0622 -0.0495 -0.0000
v  -0.1875 -0.0356 -0.0000
# 66 vertices

vn -0.0000 -0.0000 1.0000
vn 0.0000 -0.0000 1.0000
# 2 vertex normals

vt 0.4603 0.4045 0.0000
vt 0.4801 0.3234 0.0000
vt 0.4777 0.4050 0.0000
vt 0.5459 0.4070 0.0000
vt 0.5470 0.3252 0.0000
vt 0.5627 0.4075 0.0000
vt 0.3721 0.6380 0.0000
vt 0.3155 0.6350 0.0000
vt 0.3341 0.5886 0.0000
vt 0.3659 0.5903 0.0000
vt 0.4800 0.5869 0.0000
vt 0.4810 0.6436 0.0000
vt 0.5306 0.6462 0.0000
vt 0.5359 0.5892 0.0000
vt 0.6311 0.6017 0.0000
vt 0.6099 0.6503 0.0000
vt 0.6791 0.6042 0.0000
vt 0.6951 0.6547 0.0000
vt 0.4920 0.1704 0.0000
vt 0.5314 0.1704 0.0000
vt 0.5292 0.3057 0.0000
vt 0.4922 0.3057 0.0000
vt 0.5383 0.5168 0.0000
vt 0.4812 0.5151 0.0000
vt 0.4785 0.7309 0.0000
vt 0.5281 0.7324 0.0000
vt 0.5362 0.7717 0.0000
vt 0.4682 0.7702 0.0000
vt 0.3239 0.8072 0.0000
vt 0.3102 0.7664 0.0000
vt 0.3661 0.7677 0.0000
vt 0.3775 0.8081 0.0000
vt 0.4587 0.8095 0.0000
vt 0.5430 0.8109 0.0000
vt 0.6045 0.7733 0.0000
vt 0.6055 0.8120 0.0000
vt 0.6908 0.7754 0.0000
vt 0.6735 0.8132 0.0000
vt 0.5583 0.9293 0.0000
vt 0.4363 0.9293 0.0000
vt 0.4363 0.8867 0.0000
vt 0.5583 0.8867 0.0000
vt 0.4980 0.3164 0.0000
vt 0.5313 0.3174 0.0000
vt 0.5375 0.1537 0.0000
vt 0.4947 0.1537 0.0000
vt 0.4508 0.0261 0.0000
vt 0.5814 0.0261 0.0000
vt 0.7085 0.6965 0.0000
vt 0.6104 0.6926 0.0000
vt 0.5309 0.6894 0.0000
vt 0.4789 0.6872 0.0000
vt 0.3589 0.6824 0.0000
vt 0.2996 0.6800 0.0000
vt 0.3734 0.5264 0.0000
vt 0.6418 0.5355 0.0000
vt 0.7023 0.7375 0.0000
vt 0.6003 0.7345 0.0000
vt 0.3584 0.7274 0.0000
vt 0.3019 0.7257 0.0000
vt 0.6086 0.8583 0.0000
vt 0.5534 0.8657 0.0000
vt 0.4453 0.8625 0.0000
vt 0.3876 0.8506 0.0000
vt 0.5780 0.4438 0.0000
vt 0.5418 0.4388 0.0000
vt 0.4805 0.4370 0.0000
vt 0.4429 0.4395 0.0000
vt 0.6059 0.4804 0.0000
vt 0.5434 0.4708 0.0000
vt 0.4777 0.4688 0.0000
vt 0.4127 0.4741 0.0000
# 72 texture coords

o Plane006
g Plane006
usemtl Material__176
s 1
f 1/1/1 2/2/1 3/3/1 
f 4/4/2 5/5/2 6/6/2 
f 7/7/1 8/8/1 9/9/1 
f 9/9/1 10/10/1 7/7/1 
f 10/10/1 11/11/1 12/12/1 
f 12/12/1 7/7/1 10/10/1 
f 13/13/2 14/14/2 15/15/2 
f 15/15/2 16/16/2 13/13/2 
f 16/16/2 15/15/2 17/17/2 
f 17/17/2 18/18/2 16/16/2 
f 19/19/1 20/20/2 21/21/1 
f 21/21/1 22/22/1 19/19/1 
f 5/5/2 4/4/2 3/3/1 
f 3/3/1 2/2/1 5/5/2 
f 23/23/2 14/14/2 11/11/1 
f 11/11/1 24/24/1 23/23/2 
f 25/25/1 26/26/2 27/27/1 
f 27/27/1 28/28/2 25/25/1 
f 29/29/2 30/30/2 31/31/2 
f 31/31/2 32/32/2 29/29/2 
f 32/32/2 31/31/2 28/28/2 
f 28/28/2 33/33/2 32/32/2 
f 34/34/1 27/27/1 35/35/1 
f 35/35/1 36/36/1 34/34/1 
f 35/35/1 37/37/1 38/38/1 
f 38/38/1 36/36/1 35/35/1 
f 39/39/2 40/40/2 41/41/2 
f 41/41/2 42/42/1 39/39/2 
f 5/5/2 2/2/1 22/43/1 
f 22/43/1 21/44/1 5/5/2 
s off
f 20/45/2 19/46/2 43/47/2 
f 43/47/2 44/48/2 20/45/2 
s 1
f 18/18/2 45/49/2 46/50/2 
f 46/50/2 16/16/2 18/18/2 
f 46/50/2 47/51/2 13/13/2 
f 13/13/2 16/16/2 46/50/2 
f 13/13/2 47/51/2 48/52/1 
f 48/52/1 12/12/1 13/13/2 
f 48/52/1 49/53/1 7/7/1 
f 7/7/1 12/12/1 48/52/1 
f 49/53/1 50/54/1 8/8/1 
f 8/8/1 7/7/1 49/53/1 
f 9/9/1 51/55/1 10/10/1 
f 51/55/1 24/24/1 11/11/1 
f 11/11/1 10/10/1 51/55/1 
f 14/14/2 23/23/2 52/56/2 
f 52/56/2 15/15/2 14/14/2 
f 15/15/2 52/56/2 17/17/2 
f 14/14/2 13/13/2 12/12/1 
f 12/12/1 11/11/1 14/14/2 
f 45/49/2 53/57/2 54/58/2 
f 54/58/2 46/50/2 45/49/2 
f 54/58/2 26/26/2 47/51/2 
f 47/51/2 46/50/2 54/58/2 
f 47/51/2 26/26/2 25/25/1 
f 25/25/1 48/52/1 47/51/2 
f 25/25/1 55/59/1 49/53/1 
f 49/53/1 48/52/1 25/25/1 
f 55/59/1 56/60/1 50/54/1 
f 50/54/1 49/53/1 55/59/1 
f 38/38/1 57/61/1 36/36/1 
f 36/36/1 57/61/1 42/62/1 
f 42/62/1 34/34/1 36/36/1 
f 42/62/1 41/63/2 33/33/2 
f 33/33/2 34/34/1 42/62/1 
f 33/33/2 41/63/2 58/64/2 
f 58/64/2 32/32/2 33/33/2 
f 32/32/2 58/64/2 29/29/2 
f 6/6/2 59/65/2 60/66/2 
f 60/66/2 4/4/2 6/6/2 
f 4/4/2 60/66/2 61/67/1 
f 61/67/1 3/3/1 4/4/2 
f 61/67/1 62/68/1 1/1/1 
f 1/1/1 3/3/1 61/67/1 
f 63/69/2 52/56/2 23/23/2 
f 23/23/2 64/70/2 63/69/2 
f 64/70/2 23/23/2 24/24/1 
f 24/24/1 65/71/1 64/70/2 
f 24/24/1 51/55/1 66/72/1 
f 66/72/1 65/71/1 24/24/1 
f 34/34/1 33/33/2 28/28/2 
f 28/28/2 27/27/1 34/34/1 
f 30/30/2 56/60/1 55/59/1 
f 55/59/1 31/31/2 30/30/2 
f 31/31/2 55/59/1 25/25/1 
f 25/25/1 28/28/2 31/31/2 
f 27/27/1 26/26/2 54/58/2 
f 54/58/2 35/35/1 27/27/1 
f 54/58/2 53/57/2 37/37/1 
f 37/37/1 35/35/1 54/58/2 
f 59/65/2 63/69/2 64/70/2 
f 64/70/2 60/66/2 59/65/2 
f 60/66/2 64/70/2 65/71/1 
f 65/71/1 61/67/1 60/66/2 
f 65/71/1 66/72/1 62/68/1 
f 62/68/1 61/67/1 65/71/1 
# 96 faces

