# 3ds Max Wavefront OBJ Exporter v0.97b - (c)2007 guruware
# File Created: 13.12.2020 17:23:51

mtllib 1.mtl

#
# object 1
#

v  -0.3686 3.2785 -0.0005
v  -0.3686 3.2785 0.0005
v  -2.1834 3.2785 0.0005
v  -2.1834 3.2785 -0.0005
v  -0.3783 -7.0125 -0.0005
v  -0.3783 -7.0125 0.0005
v  2.5717 -7.0125 -0.0005
v  2.5717 -7.0125 0.0005
v  2.5717 7.0125 -0.0005
v  2.5717 7.0125 0.0005
v  -0.3686 7.0125 -0.0005
v  -0.3686 7.0125 0.0005
v  -0.3686 7.0027 -0.0005
v  -0.3686 7.0027 0.0005
v  -2.5717 5.0727 -0.0005
v  -2.5717 5.0727 0.0005
# 16 vertices

vn 0.0000 -1.0000 -0.0000
vn -1.0000 0.0009 0.0000
vn 1.0000 0.0000 -0.0000
vn 0.0000 1.0000 0.0000
vn -1.0000 0.0000 -0.0000
vn -0.6590 0.7522 0.0000
vn -0.9774 -0.2115 -0.0000
vn 0.0000 -0.0000 1.0000
vn 0.0000 0.0000 -1.0000
# 9 vertex normals

o 1
g 1
usemtl wire_255255255
s 1
f 1//1 2//1 3//1 
f 3//1 4//1 1//1 
s 4
f 5//2 6//2 2//2 
f 2//2 1//2 5//2 
s 2
f 7//1 8//1 6//1 
f 6//1 5//1 7//1 
s 4
f 9//3 10//3 8//3 
f 8//3 7//3 9//3 
s 2
f 11//4 12//4 10//4 
f 10//4 9//4 11//4 
s 4
f 13//5 14//5 12//5 
f 12//5 11//5 13//5 
s 2
f 15//6 16//6 14//6 
f 14//6 13//6 15//6 
s 4
f 4//7 3//7 16//7 
f 16//7 15//7 4//7 
s 512
f 10//8 12//8 14//8 
f 16//8 3//8 2//8 
f 14//8 16//8 2//8 
f 10//8 14//8 2//8 
f 2//8 6//8 8//8 
f 10//8 2//8 8//8 
f 7//9 5//9 1//9 
f 9//9 7//9 1//9 
f 1//9 4//9 15//9 
f 1//9 15//9 13//9 
f 9//9 1//9 13//9 
f 9//9 13//9 11//9 
# 28 faces

