# 3ds Max Wavefront OBJ Exporter v0.97b - (c)2007 guruware
# File Created: 13.12.2020 17:24:03

mtllib 2.mtl

#
# object 2
#

v  3.9250 -4.3625 -0.0005
v  3.9250 -4.3625 0.0005
v  3.9250 -7.0125 0.0005
v  3.9250 -7.0125 -0.0005
v  -0.9750 -4.3625 -0.0005
v  -0.9750 -4.3625 0.0005
v  -0.9750 -3.2367 -0.0005
v  -0.9750 -3.2367 0.0005
v  3.9250 1.1113 -0.0005
v  3.9250 1.1113 0.0005
v  3.9250 7.0125 -0.0005
v  3.9250 7.0125 0.0005
v  -1.8387 7.0125 -0.0005
v  -1.8387 7.0125 0.0005
v  -3.7797 5.0707 -0.0005
v  -3.7797 5.0707 0.0005
v  -3.7797 2.8375 -0.0005
v  -3.7797 2.8375 0.0005
v  -0.9750 2.8375 -0.0005
v  -0.9750 2.8375 0.0005
v  -0.9750 4.3375 -0.0005
v  -0.9750 4.3375 0.0005
v  0.9750 4.3375 -0.0005
v  0.9750 4.3375 0.0005
v  0.9750 2.1953 -0.0005
v  0.9750 2.1953 0.0005
v  -3.9250 -2.2438 -0.0005
v  -3.9250 -2.2438 0.0005
v  -3.9250 -7.0125 -0.0005
v  -3.9250 -7.0125 0.0005
# 30 vertices

vn 1.0000 0.0000 -0.0000
vn 0.0000 1.0000 0.0000
vn 0.6637 -0.7480 -0.0000
vn -0.7072 0.7070 0.0000
vn -1.0000 0.0000 -0.0000
vn 0.0000 -1.0000 -0.0000
vn -0.6714 0.7411 0.0000
vn 0.0000 -0.0000 1.0000
vn 0.0000 0.0000 -1.0000
# 9 vertex normals

o 2
g 2
usemtl wire_255255255
s 1
f 1//1 2//1 3//1 
f 3//1 4//1 1//1 
s 4
f 5//2 6//2 2//2 
f 2//2 1//2 5//2 
s 2
f 7//1 8//1 6//1 
f 6//1 5//1 7//1 
s 4
f 9//3 10//3 8//3 
f 8//3 7//3 9//3 
s 2
f 11//1 12//1 10//1 
f 10//1 9//1 11//1 
s 4
f 13//2 14//2 12//2 
f 12//2 11//2 13//2 
s 2
f 15//4 16//4 14//4 
f 14//4 13//4 15//4 
s 4
f 17//5 18//5 16//5 
f 16//5 15//5 17//5 
s 2
f 19//6 20//6 18//6 
f 18//6 17//6 19//6 
s 4
f 21//1 22//1 20//1 
f 20//1 19//1 21//1 
s 2
f 23//6 24//6 22//6 
f 22//6 21//6 23//6 
s 4
f 25//5 26//5 24//5 
f 24//5 23//5 25//5 
s 2
f 27//7 28//7 26//7 
f 26//7 25//7 27//7 
s 4
f 29//5 30//5 28//5 
f 28//5 27//5 29//5 
s 2
f 4//6 3//6 30//6 
f 30//6 29//6 4//6 
s 512
f 18//8 20//8 22//8 
f 3//8 2//8 6//8 
f 30//8 3//8 6//8 
f 30//8 6//8 8//8 
f 28//8 30//8 8//8 
f 26//8 28//8 8//8 
f 26//8 8//8 10//8 
f 24//8 26//8 10//8 
f 24//8 10//8 12//8 
f 22//8 24//8 12//8 
f 22//8 12//8 14//8 
f 22//8 14//8 16//8 
f 18//8 22//8 16//8 
f 5//9 1//9 4//9 
f 5//9 4//9 29//9 
f 7//9 5//9 29//9 
f 7//9 29//9 27//9 
f 7//9 27//9 25//9 
f 9//9 7//9 25//9 
f 9//9 25//9 23//9 
f 11//9 9//9 23//9 
f 11//9 23//9 21//9 
f 13//9 11//9 21//9 
f 15//9 13//9 21//9 
f 17//9 15//9 21//9 
f 17//9 21//9 19//9 
# 56 faces

