# 3ds Max Wavefront OBJ Exporter v0.97b - (c)2007 guruware
# File Created: 13.12.2020 17:25:02

mtllib 9.mtl

#
# object 9
#

v  -3.9250 -1.2875 -0.0005
v  -3.9250 -1.2875 0.0005
v  -3.9250 5.0734 0.0005
v  -3.9250 5.0734 -0.0005
v  0.9750 -1.2875 -0.0005
v  0.9750 -1.2875 0.0005
v  0.9750 -4.3625 -0.0005
v  0.9750 -4.3625 0.0005
v  -1.0500 -4.3625 -0.0005
v  -1.0500 -4.3625 0.0005
v  -1.0500 -2.6375 -0.0005
v  -1.0500 -2.6375 0.0005
v  -3.9250 -2.6375 -0.0005
v  -3.9250 -2.6375 0.0005
v  -3.9250 -7.0125 -0.0005
v  -3.9250 -7.0125 0.0005
v  1.9867 -7.0125 -0.0005
v  1.9867 -7.0125 0.0005
v  3.9250 -5.0727 -0.0005
v  3.9250 -5.0727 0.0005
v  3.9250 7.0125 -0.0005
v  3.9250 7.0125 0.0005
v  -1.6570 7.0125 -0.0005
v  -1.6570 7.0125 0.0005
v  -0.9750 4.3375 -0.0005
v  -0.9750 4.3375 0.0005
v  -0.9750 1.4125 0.0005
v  -0.9750 1.4125 -0.0005
v  0.9750 4.3375 -0.0005
v  0.9750 4.3375 0.0005
v  0.9750 1.4125 -0.0005
v  0.9750 1.4125 0.0005
# 32 vertices

vn -1.0000 0.0000 -0.0000
vn 0.0000 -1.0000 -0.0000
vn 0.0000 1.0000 0.0000
vn 1.0000 0.0000 -0.0000
vn 0.7074 -0.7068 -0.0000
vn -0.6498 0.7601 0.0000
vn 0.0000 -0.0000 1.0000
vn 0.0000 0.0000 -1.0000
# 8 vertex normals

o 9
g 9
usemtl wire_255255255
s 1
f 1//1 2//1 3//1 
f 3//1 4//1 1//1 
s 4
f 5//2 6//2 2//2 
f 2//2 1//2 5//2 
s 2
f 7//1 8//1 6//1 
f 6//1 5//1 7//1 
s 4
f 9//3 10//3 8//3 
f 8//3 7//3 9//3 
s 2
f 11//4 12//4 10//4 
f 10//4 9//4 11//4 
s 4
f 13//3 14//3 12//3 
f 12//3 11//3 13//3 
s 2
f 15//1 16//1 14//1 
f 14//1 13//1 15//1 
s 4
f 17//2 18//2 16//2 
f 16//2 15//2 17//2 
s 2
f 19//5 20//5 18//5 
f 18//5 17//5 19//5 
s 4
f 21//4 22//4 20//4 
f 20//4 19//4 21//4 
s 2
f 23//3 24//3 22//3 
f 22//3 21//3 23//3 
s 4
f 4//6 3//6 24//6 
f 24//6 23//6 4//6 
s 1
f 25//4 26//4 27//4 
f 27//4 28//4 25//4 
s 4
f 29//2 30//2 26//2 
f 26//2 25//2 29//2 
s 2
f 31//1 32//1 30//1 
f 30//1 29//1 31//1 
s 4
f 28//3 27//3 32//3 
f 32//3 31//3 28//3 
s 512
f 30//7 32//7 20//7 
f 30//7 20//7 22//7 
f 26//7 30//7 22//7 
f 26//7 22//7 24//7 
f 26//7 24//7 3//7 
f 27//7 26//7 3//7 
f 27//7 3//7 2//7 
f 27//7 2//7 6//7 
f 10//7 12//7 14//7 
f 10//7 14//7 16//7 
f 8//7 10//7 16//7 
f 8//7 16//7 18//7 
f 8//7 18//7 20//7 
f 6//7 8//7 20//7 
f 6//7 20//7 32//7 
f 27//7 6//7 32//7 
f 13//8 11//8 9//8 
f 15//8 13//8 9//8 
f 15//8 9//8 7//8 
f 17//8 15//8 7//8 
f 19//8 17//8 7//8 
f 19//8 7//8 5//8 
f 31//8 19//8 5//8 
f 28//8 31//8 5//8 
f 28//8 5//8 1//8 
f 28//8 1//8 4//8 
f 19//8 31//8 29//8 
f 21//8 19//8 29//8 
f 21//8 29//8 25//8 
f 23//8 21//8 25//8 
f 4//8 23//8 25//8 
f 28//8 4//8 25//8 
# 64 faces

