# 3ds Max Wavefront OBJ Exporter v0.97b - (c)2007 guruware
# File Created: 14.11.2020 20:15:56

#
# object A
#

v  -0.3125 -0.5971 -0.0001
v  -0.3125 -0.5971 0.0001
v  -0.3125 -1.7357 0.0001
v  -0.3125 -1.7357 -0.0001
v  0.3125 -0.5971 -0.0001
v  0.3125 -0.5971 0.0001
v  0.3125 -1.7357 -0.0001
v  0.3125 -1.7357 0.0001
v  1.0427 -1.7357 -0.0001
v  1.0427 -1.7357 0.0001
v  1.0427 1.7357 -0.0001
v  1.0427 1.7357 0.0001
v  -0.4809 1.7357 -0.0001
v  -0.4809 1.7357 0.0001
v  -1.0427 1.1860 -0.0001
v  -1.0427 1.1860 0.0001
v  -1.0427 -1.7357 -0.0001
v  -1.0427 -1.7357 0.0001
v  -0.3125 0.0650 -0.0001
v  -0.3125 0.0650 0.0001
v  0.3125 0.0650 0.0001
v  0.3125 0.0650 -0.0001
v  -0.3125 1.0736 -0.0001
v  -0.3125 1.0736 0.0001
v  0.3125 1.0736 -0.0001
v  0.3125 1.0736 0.0001
# 26 vertices

vn 1.0000 0.0000 -0.0000
vn 0.0000 -1.0000 -0.0000
vn -1.0000 0.0000 -0.0000
vn 0.0000 1.0000 0.0000
vn -0.6994 0.7147 0.0000
vn 0.0000 -0.0000 1.0000
vn 0.0000 0.0000 -1.0000
# 7 vertex normals

o A
g A
s 1
f 1//1 2//1 3//1 
f 3//1 4//1 1//1 
s 4
f 5//2 6//2 2//2 
f 2//2 1//2 5//2 
s 2
f 7//3 8//3 6//3 
f 6//3 5//3 7//3 
s 4
f 9//2 10//2 8//2 
f 8//2 7//2 9//2 
s 2
f 11//1 12//1 10//1 
f 10//1 9//1 11//1 
s 4
f 13//4 14//4 12//4 
f 12//4 11//4 13//4 
s 2
f 15//5 16//5 14//5 
f 14//5 13//5 15//5 
s 4
f 17//3 18//3 16//3 
f 16//3 15//3 17//3 
s 2
f 4//2 3//2 18//2 
f 18//2 17//2 4//2 
s 1
f 19//4 20//4 21//4 
f 21//4 22//4 19//4 
s 4
f 23//1 24//1 20//1 
f 20//1 19//1 23//1 
s 2
f 25//2 26//2 24//2 
f 24//2 23//2 25//2 
s 4
f 22//3 21//3 26//3 
f 26//3 25//3 22//3 
s 512
f 16//6 18//6 3//6 
f 16//6 3//6 2//6 
f 6//6 8//6 10//6 
f 6//6 10//6 21//6 
f 2//6 6//6 21//6 
f 2//6 21//6 20//6 
f 16//6 2//6 20//6 
f 16//6 20//6 24//6 
f 26//6 21//6 10//6 
f 26//6 10//6 12//6 
f 24//6 26//6 12//6 
f 24//6 12//6 14//6 
f 16//6 24//6 14//6 
f 9//7 22//7 25//7 
f 11//7 9//7 25//7 
f 11//7 25//7 23//7 
f 13//7 11//7 23//7 
f 15//7 13//7 23//7 
f 15//7 23//7 19//7 
f 9//7 7//7 5//7 
f 22//7 9//7 5//7 
f 22//7 5//7 1//7 
f 19//7 22//7 1//7 
f 15//7 19//7 1//7 
f 15//7 1//7 4//7 
f 15//7 4//7 17//7 
# 52 faces

