# 3ds Max Wavefront OBJ Exporter v0.97b - (c)2007 guruware
# File Created: 14.11.2020 20:15:29

#
# object B
#

v  0.5840 0.0515 -0.0001
v  0.5840 0.0515 0.0001
v  1.0550 -0.2876 0.0001
v  1.0550 -0.2876 -0.0001
v  0.9251 0.3247 -0.0001
v  0.9251 0.3247 0.0001
v  0.9251 1.2781 -0.0001
v  0.9251 1.2781 0.0001
v  0.4331 1.7357 -0.0001
v  0.4331 1.7357 0.0001
v  -1.0550 1.7357 -0.0001
v  -1.0550 1.7357 0.0001
v  -1.0550 -1.2556 -0.0001
v  -1.0550 -1.2556 0.0001
v  -0.5744 -1.7357 -0.0001
v  -0.5744 -1.7357 0.0001
v  1.0550 -1.7357 -0.0001
v  1.0550 -1.7357 0.0001
v  -0.3249 -1.0798 -0.0001
v  -0.3249 -1.0798 0.0001
v  0.3249 -1.0798 0.0001
v  0.3249 -1.0798 -0.0001
v  -0.3249 -0.2877 -0.0001
v  -0.3249 -0.2877 0.0001
v  0.3249 -0.2877 -0.0001
v  0.3249 -0.2877 0.0001
v  -0.3249 0.3620 -0.0001
v  -0.3249 0.3620 0.0001
v  0.2073 0.3620 0.0001
v  0.2073 0.3620 -0.0001
v  -0.3249 1.0736 -0.0001
v  -0.3249 1.0736 0.0001
v  0.2073 1.0736 -0.0001
v  0.2073 1.0736 0.0001
# 34 vertices

vn 0.5843 0.8115 0.0000
vn 0.6250 -0.7806 -0.0000
vn 1.0000 0.0000 -0.0000
vn 0.6810 0.7323 0.0000
vn 0.0000 1.0000 0.0000
vn -1.0000 0.0000 -0.0000
vn -0.7068 -0.7075 -0.0000
vn 0.0000 -1.0000 -0.0000
vn 0.0000 -0.0000 1.0000
vn 0.0000 0.0000 -1.0000
# 10 vertex normals

o B
g B
s 1
f 1//1 2//1 3//1 
f 3//1 4//1 1//1 
s 4
f 5//2 6//2 2//2 
f 2//2 1//2 5//2 
s 2
f 7//3 8//3 6//3 
f 6//3 5//3 7//3 
s 4
f 9//4 10//4 8//4 
f 8//4 7//4 9//4 
s 2
f 11//5 12//5 10//5 
f 10//5 9//5 11//5 
s 4
f 13//6 14//6 12//6 
f 12//6 11//6 13//6 
s 2
f 15//7 16//7 14//7 
f 14//7 13//7 15//7 
s 4
f 17//8 18//8 16//8 
f 16//8 15//8 17//8 
s 2
f 4//3 3//3 18//3 
f 18//3 17//3 4//3 
s 1
f 19//5 20//5 21//5 
f 21//5 22//5 19//5 
s 4
f 23//3 24//3 20//3 
f 20//3 19//3 23//3 
s 2
f 25//8 26//8 24//8 
f 24//8 23//8 25//8 
s 4
f 22//6 21//6 26//6 
f 26//6 25//6 22//6 
s 1
f 27//5 28//5 29//5 
f 29//5 30//5 27//5 
s 4
f 31//3 32//3 28//3 
f 28//3 27//3 31//3 
s 2
f 33//8 34//8 32//8 
f 32//8 31//8 33//8 
s 4
f 30//6 29//6 34//6 
f 34//6 33//6 30//6 
s 512
f 34//9 29//9 6//9 
f 34//9 6//9 8//9 
f 34//9 8//9 10//9 
f 32//9 34//9 10//9 
f 32//9 10//9 12//9 
f 28//9 32//9 12//9 
f 24//9 28//9 12//9 
f 20//9 24//9 12//9 
f 20//9 12//9 14//9 
f 20//9 14//9 16//9 
f 20//9 16//9 18//9 
f 2//9 6//9 29//9 
f 2//9 29//9 28//9 
f 3//9 2//9 28//9 
f 28//9 24//9 26//9 
f 3//9 28//9 26//9 
f 3//9 26//9 21//9 
f 18//9 3//9 21//9 
f 20//9 18//9 21//9 
f 30//10 5//10 1//10 
f 11//10 23//10 19//10 
f 13//10 11//10 19//10 
f 15//10 13//10 19//10 
f 15//10 19//10 22//10 
f 17//10 15//10 22//10 
f 4//10 17//10 22//10 
f 4//10 22//10 25//10 
f 1//10 4//10 25//10 
f 30//10 1//10 25//10 
f 30//10 25//10 23//10 
f 5//10 30//10 33//10 
f 7//10 5//10 33//10 
f 9//10 7//10 33//10 
f 9//10 33//10 31//10 
f 11//10 9//10 31//10 
f 11//10 31//10 27//10 
f 23//10 11//10 27//10 
f 30//10 23//10 27//10 
# 72 faces

