# 3ds Max Wavefront OBJ Exporter v0.97b - (c)2007 guruware
# File Created: 14.11.2020 20:17:01

#
# object H
#

v  -1.0427 -1.7357 -0.0000
v  -0.3125 -1.7357 -0.0000
v  -0.3125 -0.3434 -0.0000
v  0.3125 -0.3434 -0.0000
v  0.3125 -1.7357 -0.0000
v  1.0427 -1.7357 -0.0000
v  1.0427 1.7357 -0.0000
v  0.3125 1.7357 -0.0000
v  0.3125 0.3125 -0.0000
v  -0.3125 0.3125 -0.0000
v  -0.3125 1.7357 -0.0000
v  -1.0427 1.7357 -0.0000
# 12 vertices

vn 0.0000 -0.0000 1.0000
# 1 vertex normals

o H
g H
s 512
f 1//1 2//1 3//1 
f 4//1 5//1 6//1 
f 7//1 8//1 9//1 
f 6//1 7//1 9//1 
f 4//1 6//1 9//1 
f 3//1 4//1 9//1 
f 3//1 9//1 10//1 
f 10//1 11//1 12//1 
f 3//1 10//1 12//1 
f 1//1 3//1 12//1 
# 10 faces

