# 3ds Max Wavefront OBJ Exporter v0.97b - (c)2007 guruware
# File Created: 14.11.2020 20:18:57

#
# object Q
#

v  1.0069 -2.0358 -0.0000
v  1.0550 -2.0358 -0.0000
v  0.3249 1.3737 -0.0000
v  0.3249 -0.7797 -0.0000
v  1.0550 2.0358 -0.0000
v  -0.3249 1.3737 -0.0000
v  -0.5738 2.0358 -0.0000
v  -1.0550 1.5557 -0.0000
v  -0.3249 -0.7797 -0.0000
v  -1.0550 -1.4356 -0.0000
v  0.2851 -1.4356 -0.0000
# 11 vertices

vn 0.0000 -0.0000 1.0000
# 1 vertex normals

o Q
g Q
s 512
f 1//1 2//1 3//1 
f 1//1 3//1 4//1 
f 3//1 2//1 5//1 
f 6//1 3//1 5//1 
f 6//1 5//1 7//1 
f 6//1 7//1 8//1 
f 9//1 6//1 8//1 
f 9//1 8//1 10//1 
f 9//1 10//1 11//1 
f 4//1 9//1 11//1 
f 1//1 4//1 11//1 
# 11 faces

