# 3ds Max Wavefront OBJ Exporter v0.97b - (c)2007 guruware
# File Created: 14.11.2020 20:22:27

mtllib shuriken.mtl

#
# object Plane005
#

v  0.9459 -0.1971 -0.0000
v  0.9100 -0.3158 -0.0000
v  1.1118 -0.3469 -0.0000
v  1.1602 -0.1060 0.0000
v  1.0313 0.1615 0.0000
v  0.9853 -0.0346 0.0000
v  1.1586 0.0892 0.0000
v  1.1125 0.3175 0.0000
v  0.6222 -0.4173 -0.0000
v  0.6585 -0.3145 -0.0000
v  0.4069 -0.3131 -0.0000
v  0.3875 -0.4151 -0.0000
v  0.6726 -0.2276 -0.0000
v  0.6786 -0.1235 0.0000
v  0.4361 -0.1279 0.0000
v  0.4263 -0.2111 -0.0000
v  0.1093 -0.3606 -0.0000
v  0.1227 -0.5101 -0.0000
v  0.2018 -0.1683 0.0000
v  0.0989 -0.3153 -0.0000
v  0.2276 -0.3224 -0.0000
v  0.8602 -0.4508 -0.0000
v  0.9870 -0.5236 -0.0000
v  0.8193 -0.2123 -0.0000
v  0.7842 -0.3151 -0.0000
v  -0.0401 -0.5142 -0.0000
v  -0.0771 -0.6455 -0.0000
v  0.8738 0.0150 0.0000
v  0.8589 -0.0790 0.0000
v  0.1109 -0.0097 0.0000
v  -0.0434 -0.0684 0.0000
v  0.2860 -0.0481 0.0000
v  1.3136 -0.3780 -0.0000
v  1.3745 -0.0149 0.0000
v  1.3318 0.2130 0.0000
v  1.1502 0.7221 0.0000
v  0.9607 -0.7801 -0.0000
v  0.7412 -0.4340 -0.0000
v  0.4296 -0.0282 0.0000
v  0.6760 -0.0500 0.0000
v  0.3296 0.0142 0.0000
v  -0.2756 0.9099 0.0000
v  -0.1548 0.9381 -0.0000
v  -0.2287 1.1284 -0.0000
v  -0.4616 1.0499 0.0000
v  -0.6287 0.8045 0.0000
v  -0.4360 0.8628 0.0000
v  -0.6298 0.9509 0.0000
v  -0.8045 0.7969 0.0000
v  0.0770 0.7396 -0.0000
v  -0.0302 0.7196 -0.0000
v  0.0944 0.5011 -0.0000
v  0.1925 0.5353 -0.0000
v  -0.1124 0.6884 0.0000
v  -0.2056 0.6415 0.0000
v  -0.0805 0.4337 0.0000
v  -0.0036 0.4668 0.0000
v  0.2844 0.2671 -0.0000
v  0.4071 0.3534 -0.0000
v  0.0852 0.2566 0.0000
v  0.2437 0.2566 -0.0000
v  0.1922 0.3505 -0.0000
v  -0.0130 0.9625 -0.0000
v  -0.0133 1.1087 -0.0000
v  -0.1990 0.8078 0.0000
v  -0.0925 0.8289 -0.0000
v  0.4924 0.2195 -0.0000
v  0.6243 0.2481 -0.0000
v  -0.4231 0.7414 0.0000
v  -0.3342 0.7755 0.0000
v  -0.0187 0.0962 0.0000
v  -0.0743 0.2566 0.0000
v  -0.3026 1.3188 -0.0000
v  -0.6476 1.1899 0.0000
v  -0.8237 1.0390 0.0000
v  -1.0908 0.5931 0.0000
v  0.2103 1.2452 -0.0000
v  0.0320 0.8511 -0.0000
v  -0.1627 0.3817 0.0000
v  -0.2680 0.6026 0.0000
v  -0.1536 0.2566 0.0000
v  -0.6216 -0.6947 0.0000
v  -0.7065 -0.6042 -0.0000
v  -0.8343 -0.7634 -0.0000
v  -0.6499 -0.9258 0.0000
v  -0.3538 -0.9479 0.0000
v  -0.5006 -0.8101 0.0000
v  -0.4800 -1.0220 0.0000
v  -0.2593 -1.0962 0.0000
v  -0.6505 -0.3042 -0.0000
v  -0.5795 -0.3870 -0.0000
v  -0.4526 -0.1699 -0.0000
v  -0.5313 -0.1021 -0.0000
v  -0.5113 -0.4427 0.0000
v  -0.4242 -0.4999 0.0000
v  -0.3068 -0.2877 0.0000
v  -0.3739 -0.2377 0.0000
v  -0.3449 0.1117 -0.0000
v  -0.4811 0.1747 -0.0000
v  -0.2363 -0.0433 0.0000
v  -0.3020 0.0978 -0.0000
v  -0.3710 -0.0099 -0.0000
v  -0.7985 -0.4936 -0.0000
v  -0.9249 -0.5670 -0.0000
v  -0.5715 -0.5774 0.0000
v  -0.6430 -0.4956 -0.0000
v  -0.4095 0.2944 -0.0000
v  -0.4985 0.4155 -0.0000
v  -0.4019 -0.7382 0.0000
v  -0.4758 -0.6783 0.0000
v  -0.1609 -0.2050 0.0000
v  -0.9622 -0.9226 -0.0000
v  -0.6781 -1.1569 0.0000
v  -0.4594 -1.2339 0.0000
v  0.1563 -1.2967 0.0000
v  -1.1138 -0.4254 -0.0000
v  -0.7245 -0.3989 -0.0000
v  -0.2181 -0.3354 0.0000
v  -0.3593 -0.5345 0.0000
v  -0.1231 -0.2860 0.0000
v  -0.0435 -0.2930 -0.0000
v  0.3041 0.1018 -0.0000
v  -0.2119 0.2093 -0.0000
# 123 vertices

vn 0.0000 -0.0000 1.0000
vn -0.0000 -0.0000 1.0000
vn 0.0000 0.0000 1.0000
vn -0.0000 0.0000 1.0000
# 4 vertex normals

vt 0.7643 0.4317 0.0000
vt 0.7513 0.3915 0.0000
vt 0.8198 0.3795 0.0000
vt 0.8380 0.4613 0.0000
vt 0.7959 0.5533 0.0000
vt 0.7789 0.4868 0.0000
vt 0.8388 0.5278 0.0000
vt 0.8246 0.6059 0.0000
vt 0.6525 0.3589 0.0000
vt 0.6656 0.3937 0.0000
vt 0.5799 0.3959 0.0000
vt 0.5726 0.3612 0.0000
vt 0.6710 0.4232 0.0000
vt 0.6737 0.4586 0.0000
vt 0.5911 0.4588 0.0000
vt 0.5872 0.4305 0.0000
vt 0.5524 0.3440 -0.5000
vt 0.4334 0.3629 -0.5000
vt 0.4414 0.2997 -0.5000
vt 0.5110 0.4466 0.0000
vt 0.4749 0.3972 0.0000
vt 0.5187 0.3939 0.0000
vt 0.4831 0.3809 -0.5000
vt 0.7334 0.3458 0.0000
vt 0.7761 0.3202 0.0000
vt 0.7211 0.4274 0.0000
vt 0.7084 0.3926 0.0000
vt 0.3723 0.2954 -0.5000
vt 0.3586 0.2391 0.5000
vt 0.7412 0.5045 0.0000
vt 0.7355 0.4725 0.0000
vt 0.4828 0.4942 -0.2504
vt 0.4465 0.4809 -0.2504
vt 0.5037 0.4567 -0.2504
vt 0.5238 0.4847 -0.2504
vt 0.9134 0.3575 0.0000
vt 0.9411 0.4839 0.0000
vt 0.8643 0.4556 0.0000
vt 0.8432 0.3719 0.0000
vt 0.9300 0.5646 0.0000
vt 0.8751 0.7464 0.0000
vt 0.8549 0.6051 0.0000
vt 0.8671 0.5242 0.0000
vt 0.7827 0.2225 0.0000
vt 0.7963 0.3120 0.0000
vt 0.6930 0.3524 0.0000
vt 0.5896 0.4928 0.0000
vt 0.6734 0.4837 0.0000
vt 0.5342 0.4992 0.2504
vt 0.3619 0.7589 -0.3750
vt 0.3956 0.7672 -0.3750
vt 0.3742 0.8202 -0.3750
vt 0.3093 0.7974 -0.3750
vt 0.2633 0.7281 -0.3750
vt 0.3171 0.7451 -0.3750
vt 0.2625 0.7691 -0.3750
vt 0.2142 0.7254 -0.3750
vt 0.4612 0.7124 -0.3750
vt 0.4312 0.7064 -0.3750
vt 0.4669 0.6457 -0.3750
vt 0.4942 0.6556 -0.3750
vt 0.4083 0.6974 -0.3750
vt 0.3824 0.6840 -0.3750
vt 0.4181 0.6262 -0.3750
vt 0.4396 0.6357 -0.3750
vt 0.5238 0.6726 -0.5000
vt 0.5620 0.5715 -0.5000
vt 0.6077 0.6058 -0.5000
vt 0.4652 0.5771 -0.3750
vt 0.5096 0.5777 0.3750
vt 0.4948 0.6038 -0.3750
vt 0.5259 0.6022 0.0000
vt 0.4352 0.7745 -0.3750
vt 0.4346 0.8154 -0.3750
vt 0.3836 0.7305 -0.3750
vt 0.4134 0.7368 -0.3750
vt 0.6417 0.5559 -0.5000
vt 0.6916 0.5683 0.5000
vt 0.3211 0.7112 -0.3750
vt 0.3459 0.7210 -0.3750
vt 0.4531 0.5326 -0.2492
vt 0.4791 0.5068 -0.2492
vt 0.4791 0.5654 -0.2492
vt 0.4443 0.5687 -0.2492
vt 0.3068 0.8929 0.0000
vt 0.1944 0.8309 0.0000
vt 0.2657 0.7921 0.0000
vt 0.3420 0.8310 0.0000
vt 0.1414 0.7700 0.0000
vt 0.0719 0.6026 0.0000
vt 0.1603 0.6874 0.0000
vt 0.2127 0.7494 0.0000
vt 0.4874 0.8936 0.0000
vt 0.4173 0.8351 0.0000
vt 0.4482 0.7435 -0.3750
vt 0.3953 0.6113 -0.3750
vt 0.3650 0.6728 -0.3750
vt 0.4271 0.5704 0.2492
vt 0.2241 0.2895 -0.3750
vt 0.2001 0.3244 -0.3750
vt 0.1488 0.2772 -0.3750
vt 0.2027 0.2129 -0.3750
vt 0.3016 0.1903 -0.3750
vt 0.2591 0.2444 -0.3750
vt 0.2552 0.1718 -0.3750
vt 0.3259 0.1354 -0.3750
vt 0.2343 0.4228 -0.3750
vt 0.2540 0.3912 -0.3750
vt 0.3080 0.4580 -0.3750
vt 0.2849 0.4850 -0.3750
vt 0.2742 0.3689 -0.3750
vt 0.3007 0.3452 -0.3750
vt 0.3512 0.4108 -0.3750
vt 0.3311 0.4311 -0.3750
vt 0.2738 0.5010 -0.5000
vt 0.3353 0.5769 -0.5000
vt 0.2877 0.5969 -0.5000
vt 0.3875 0.4897 -0.3750
vt 0.3725 0.5407 0.3750
vt 0.3437 0.5079 -0.3750
vt 0.3278 0.5347 -0.5000
vt 0.1747 0.3664 -0.3750
vt 0.1282 0.3481 -0.3750
vt 0.2470 0.3266 -0.3750
vt 0.2270 0.3578 -0.3750
vt 0.3108 0.6390 -0.5000
vt 0.2787 0.6796 0.5000
vt 0.2960 0.2636 -0.3750
vt 0.2741 0.2876 -0.3750
vt 0.4385 0.4882 -0.2505
vt 0.4472 0.5238 -0.2505
vt 0.3967 0.4976 -0.2505
vt 0.4099 0.4606 -0.2505
vt 0.0742 0.2537 0.0000
vt 0.1395 0.1603 0.0000
vt 0.1671 0.2269 0.0000
vt 0.1255 0.2906 0.0000
vt 0.1983 0.1191 0.0000
vt 0.3767 0.0493 0.0000
vt 0.2694 0.1436 0.0000
vt 0.2098 0.1841 0.0000
vt 0.0702 0.4146 0.0000
vt 0.1148 0.3567 0.0000
vt 0.2045 0.3946 -0.3750
vt 0.3787 0.3902 -0.3750
vt 0.3208 0.3302 -0.3750
vt 0.4165 0.4421 0.2505
vt 0.4792 0.4225 -0.2504
vt 0.4272 0.4300 0.2504
vt 0.4456 0.4266 -0.2504
vt 0.5405 0.4870 0.0000
vt 0.5558 0.5079 0.0000
vt 0.5136 0.5621 -0.2492
vt 0.5273 0.5075 0.2492
vt 0.5236 0.5271 -0.2492
vt 0.4205 0.5766 -0.3750
vt 0.3983 0.5763 -0.3750
vt 0.3851 0.5299 -0.2505
vt 0.4210 0.5617 0.2505
vt 0.4072 0.5525 -0.2505
vt 0.4047 0.4313 -0.3750
vt 0.4133 0.4020 -0.3750
# 162 texture coords

o Plane005
g Plane005
usemtl Material__113
s 1
f 1/1/1 2/2/2 3/3/2 
f 3/3/2 4/4/1 1/1/1 
f 5/5/1 6/6/1 7/7/1 
f 7/7/1 8/8/1 5/5/1 
f 9/9/2 10/10/2 11/11/2 
f 11/11/2 12/12/2 9/9/2 
f 13/13/1 14/14/2 15/15/2 
f 15/15/2 16/16/2 13/13/1 
s off
f 12/17/3 17/18/3 18/19/3 
f 19/20/1 20/21/1 21/22/1 
f 19/20/1 21/22/1 11/11/1 
f 16/16/2 19/20/2 11/11/2 
f 12/17/2 21/23/2 17/18/2 
s 1
f 2/2/2 22/24/2 23/25/2 
f 23/25/2 3/3/2 2/2/2 
f 2/2/2 1/1/1 24/26/1 
f 24/26/1 25/27/1 2/2/2 
s off
f 21/22/1 12/12/1 11/11/1 
f 26/28/4 27/29/4 18/19/4 
f 18/19/4 17/18/4 26/28/4 
s 1
f 6/6/1 1/1/1 4/4/1 
f 4/4/1 7/7/1 6/6/1 
f 6/6/1 5/5/1 28/30/1 
f 28/30/1 29/31/1 6/6/1 
s off
f 30/32/1 31/33/1 19/34/1 
f 19/34/2 32/35/2 30/32/2 
s 1
f 33/36/2 34/37/1 4/38/1 
f 4/38/1 3/39/2 33/36/2 
f 35/40/1 36/41/1 8/42/1 
f 8/42/1 7/43/1 35/40/1 
f 37/44/2 33/36/2 3/39/2 
f 3/39/2 23/45/2 37/44/2 
f 34/37/1 35/40/1 7/43/1 
f 7/43/1 4/38/1 34/37/1 
f 38/46/2 25/27/1 10/10/2 
f 10/10/2 9/9/2 38/46/2 
f 24/26/1 29/31/1 14/14/2 
f 14/14/2 13/13/1 24/26/1 
f 16/16/2 11/11/2 10/10/2 
f 10/10/2 13/13/1 16/16/2 
f 39/47/4 15/15/2 14/14/2 
f 14/14/2 40/48/2 39/47/4 
f 13/13/1 10/10/2 25/27/1 
f 25/27/1 24/26/1 13/13/1 
f 40/48/2 14/14/2 29/31/1 
f 29/31/1 28/30/1 40/48/2 
f 22/24/2 2/2/2 25/27/1 
f 25/27/1 38/46/2 22/24/2 
f 1/1/1 6/6/1 29/31/1 
f 29/31/1 24/26/1 1/1/1 
s off
f 30/32/4 32/35/4 41/49/4 
s 1
f 42/50/3 43/51/3 44/52/3 
f 44/52/3 45/53/3 42/50/3 
f 46/54/3 47/55/3 48/56/3 
f 48/56/3 49/57/4 46/54/3 
f 50/58/3 51/59/3 52/60/3 
f 52/60/3 53/61/3 50/58/3 
f 54/62/3 55/63/3 56/64/3 
f 56/64/3 57/65/3 54/62/3 
s off
f 53/66/2 58/67/2 59/68/2 
f 60/69/3 61/70/3 62/71/3 
f 60/69/3 62/71/3 52/60/3 
f 57/65/3 60/69/3 52/60/3 
f 53/66/3 62/72/3 58/67/3 
s 1
f 43/51/3 63/73/3 64/74/1 
f 64/74/1 44/52/3 43/51/3 
f 43/51/3 42/50/3 65/75/3 
f 65/75/3 66/76/3 43/51/3 
s off
f 62/71/3 53/61/3 52/60/3 
f 67/77/2 68/78/2 59/68/2 
f 59/68/2 58/67/2 67/77/2 
s 1
f 47/55/3 42/50/3 45/53/3 
f 45/53/3 48/56/3 47/55/3 
f 47/55/3 46/54/3 69/79/3 
f 69/79/3 70/80/3 47/55/3 
s off
f 71/81/1 30/82/1 60/83/1 
f 60/83/1 72/84/1 71/81/1 
s 1
f 73/85/3 74/86/3 45/87/3 
f 45/87/3 44/88/3 73/85/3 
f 75/89/3 76/90/4 49/91/4 
f 49/91/4 48/92/3 75/89/3 
f 77/93/1 73/85/3 44/88/3 
f 44/88/3 64/94/1 77/93/1 
f 74/86/3 75/89/3 48/92/3 
f 48/92/3 45/87/3 74/86/3 
f 78/95/3 66/76/3 51/59/3 
f 51/59/3 50/58/3 78/95/3 
f 65/75/3 70/80/3 55/63/3 
f 55/63/3 54/62/3 65/75/3 
f 57/65/3 52/60/3 51/59/3 
f 51/59/3 54/62/3 57/65/3 
f 79/96/2 56/64/3 55/63/3 
f 55/63/3 80/97/3 79/96/2 
f 54/62/3 51/59/3 66/76/3 
f 66/76/3 65/75/3 54/62/3 
f 80/97/3 55/63/3 70/80/3 
f 70/80/3 69/79/3 80/97/3 
f 63/73/3 43/51/3 66/76/3 
f 66/76/3 78/95/3 63/73/3 
f 42/50/3 47/55/3 70/80/3 
f 70/80/3 65/75/3 42/50/3 
s off
f 71/81/2 72/84/2 81/98/2 
s 1
f 82/99/4 83/100/4 84/101/4 
f 84/101/4 85/102/4 82/99/4 
f 86/103/2 87/104/4 88/105/2 
f 88/105/2 89/106/2 86/103/2 
f 90/107/4 91/108/4 92/109/4 
f 92/109/4 93/110/4 90/107/4 
f 94/111/4 95/112/4 96/113/4 
f 96/113/4 97/114/4 94/111/4 
s off
f 93/115/1 98/116/1 99/117/1 
f 100/118/4 101/119/4 102/120/4 
f 100/118/4 102/120/4 92/109/4 
f 97/114/4 100/118/4 92/109/4 
f 93/115/4 102/121/4 98/116/4 
s 1
f 83/100/4 103/122/4 104/123/3 
f 104/123/3 84/101/4 83/100/4 
f 83/100/4 82/99/4 105/124/4 
f 105/124/4 106/125/4 83/100/4 
s off
f 102/120/4 93/110/4 92/109/4 
f 107/126/1 108/127/1 99/117/1 
f 99/117/1 98/116/1 107/126/1 
s 1
f 87/104/4 82/99/4 85/102/4 
f 85/102/4 88/105/2 87/104/4 
f 87/104/4 86/103/2 109/128/4 
f 109/128/4 110/129/4 87/104/4 
s off
f 31/130/1 71/131/1 100/132/1 
f 100/132/3 111/133/3 31/130/3 
s 1
f 112/134/4 113/135/4 85/136/4 
f 85/136/4 84/137/4 112/134/4 
f 114/138/2 115/139/2 89/140/2 
f 89/140/2 88/141/2 114/138/2 
f 116/142/3 112/134/4 84/137/4 
f 84/137/4 104/143/3 116/142/3 
f 113/135/4 114/138/2 88/141/2 
f 88/141/2 85/136/4 113/135/4 
f 117/144/4 106/125/4 91/108/4 
f 91/108/4 90/107/4 117/144/4 
f 105/124/4 110/129/4 95/112/4 
f 95/112/4 94/111/4 105/124/4 
f 97/114/4 92/109/4 91/108/4 
f 91/108/4 94/111/4 97/114/4 
f 118/145/1 96/113/4 95/112/4 
f 95/112/4 119/146/4 118/145/1 
f 94/111/4 91/108/4 106/125/4 
f 106/125/4 105/124/4 94/111/4 
f 119/146/4 95/112/4 110/129/4 
f 110/129/4 109/128/4 119/146/4 
f 103/122/4 83/100/4 106/125/4 
f 106/125/4 117/144/4 103/122/4 
f 82/99/4 87/104/4 110/129/4 
f 110/129/4 105/124/4 82/99/4 
s off
f 31/130/1 111/133/1 120/147/1 
f 19/34/2 31/33/2 20/148/2 
f 31/33/1 120/149/1 121/150/1 
f 121/150/2 20/148/2 31/33/2 
f 16/16/2 15/15/2 32/151/2 
f 32/151/2 19/20/2 16/16/2 
f 39/47/3 41/152/3 32/151/3 
f 32/151/3 15/15/3 39/47/3 
f 60/83/1 30/82/1 61/153/1 
f 61/153/4 30/82/4 41/154/4 
f 41/154/3 122/155/3 61/153/3 
f 57/65/1 56/64/1 72/156/1 
f 72/156/3 60/69/3 57/65/3 
f 79/96/2 81/157/2 72/156/2 
f 72/156/2 56/64/2 79/96/2 
f 100/132/4 71/131/4 101/158/4 
f 101/158/2 71/131/2 81/159/2 
f 81/159/4 123/160/4 101/158/4 
f 97/114/4 96/113/4 111/161/4 
f 111/161/4 100/118/4 97/114/4 
f 118/145/1 120/162/1 111/161/1 
f 111/161/1 96/113/1 118/145/1 
# 174 faces

