# 3ds Max Wavefront OBJ Exporter v0.97b - (c)2007 guruware
# File Created: 14.11.2020 20:19:53

#
# object W
#

v  1.0473 -1.7357 -0.0000
v  1.6454 1.7357 -0.0000
v  0.9368 1.7357 -0.0000
v  0.6245 -0.3337 -0.0000
v  -0.9368 1.7357 -0.0000
v  -1.6454 1.7357 -0.0000
v  -1.0473 -1.7357 -0.0000
v  -0.6246 -0.3337 -0.0000
v  -0.3843 -1.7357 -0.0000
v  0.0000 0.4154 -0.0000
v  -0.2523 1.7357 -0.0000
v  0.2522 1.7357 -0.0000
v  0.3843 -1.7357 -0.0000
# 13 vertices

vn 0.0000 -0.0000 1.0000
# 1 vertex normals

o W
g W
s 512
f 1//1 2//1 3//1 
f 1//1 3//1 4//1 
f 5//1 6//1 7//1 
f 8//1 5//1 7//1 
f 8//1 7//1 9//1 
f 8//1 9//1 10//1 
f 11//1 8//1 10//1 
f 12//1 11//1 10//1 
f 4//1 12//1 10//1 
f 4//1 10//1 13//1 
f 1//1 4//1 13//1 
# 11 faces

