# 3ds Max Wavefront OBJ Exporter v0.97b - (c)2007 guruware
# File Created: 13.12.2020 17:24:22

mtllib 4.mtl

#
# object 4
#

v  3.2787 -7.0125 -0.0005
v  3.2787 -7.0125 0.0005
v  0.4537 -7.0125 0.0005
v  0.4537 -7.0125 -0.0005
v  3.2787 -4.2375 -0.0005
v  3.2787 -4.2375 0.0005
v  4.5537 -4.2375 -0.0005
v  4.5537 -4.2375 0.0005
v  4.5537 -1.7875 -0.0005
v  4.5537 -1.7875 0.0005
v  3.2787 -1.7875 -0.0005
v  3.2787 -1.7875 0.0005
v  3.2787 5.0719 -0.0005
v  3.2787 5.0719 0.0005
v  1.3373 7.0125 -0.0005
v  1.3373 7.0125 0.0005
v  0.1725 7.0125 -0.0005
v  0.1725 7.0125 0.0005
v  -4.5537 -1.7637 -0.0005
v  -4.5537 -1.7637 0.0005
v  -2.9135 -4.3625 -0.0005
v  -2.9135 -4.3625 0.0005
v  0.4537 -4.3625 -0.0005
v  0.4537 -4.3625 0.0005
v  0.4490 2.7652 -0.0005
v  0.4490 2.7652 0.0005
v  -1.7783 -1.9125 0.0005
v  -1.7783 -1.9125 -0.0005
v  0.4537 -1.9125 -0.0005
v  0.4537 -1.9125 0.0005
# 30 vertices

vn 0.0000 -1.0000 -0.0000
vn 1.0000 0.0000 -0.0000
vn 0.0000 1.0000 0.0000
vn 0.7070 0.7072 0.0000
vn -0.8804 0.4741 0.0000
vn -0.8457 -0.5337 -0.0000
vn -1.0000 0.0000 -0.0000
vn 0.9029 -0.4299 -0.0000
vn -1.0000 -0.0010 -0.0000
vn 0.0000 -0.0000 1.0000
vn 0.0000 0.0000 -1.0000
# 11 vertex normals

o 4
g 4
usemtl wire_255255255
s 1
f 1//1 2//1 3//1 
f 3//1 4//1 1//1 
s 4
f 5//2 6//2 2//2 
f 2//2 1//2 5//2 
s 2
f 7//1 8//1 6//1 
f 6//1 5//1 7//1 
s 4
f 9//2 10//2 8//2 
f 8//2 7//2 9//2 
s 2
f 11//3 12//3 10//3 
f 10//3 9//3 11//3 
s 4
f 13//2 14//2 12//2 
f 12//2 11//2 13//2 
s 2
f 15//4 16//4 14//4 
f 14//4 13//4 15//4 
s 4
f 17//3 18//3 16//3 
f 16//3 15//3 17//3 
s 2
f 19//5 20//5 18//5 
f 18//5 17//5 19//5 
s 4
f 21//6 22//6 20//6 
f 20//6 19//6 21//6 
s 2
f 23//1 24//1 22//1 
f 22//1 21//1 23//1 
s 4
f 4//7 3//7 24//7 
f 24//7 23//7 4//7 
s 1
f 25//8 26//8 27//8 
f 27//8 28//8 25//8 
s 4
f 29//9 30//9 26//9 
f 26//9 25//9 29//9 
s 2
f 28//3 27//3 30//3 
f 30//3 29//3 28//3 
s 512
f 8//10 10//10 12//10 
f 22//10 24//10 27//10 
f 20//10 22//10 27//10 
f 20//10 27//10 26//10 
f 18//10 20//10 26//10 
f 16//10 18//10 26//10 
f 14//10 16//10 26//10 
f 12//10 14//10 26//10 
f 12//10 26//10 30//10 
f 24//10 3//10 2//10 
f 27//10 24//10 2//10 
f 27//10 2//10 6//10 
f 30//10 27//10 6//10 
f 12//10 30//10 6//10 
f 8//10 12//10 6//10 
f 1//11 4//11 23//11 
f 1//11 23//11 28//11 
f 5//11 1//11 28//11 
f 5//11 28//11 29//11 
f 28//11 23//11 21//11 
f 28//11 21//11 19//11 
f 25//11 28//11 19//11 
f 25//11 19//11 17//11 
f 25//11 17//11 15//11 
f 25//11 15//11 13//11 
f 25//11 13//11 11//11 
f 29//11 25//11 11//11 
f 5//11 29//11 11//11 
f 7//11 5//11 11//11 
f 7//11 11//11 9//11 
# 60 faces

