# 3ds Max Wavefront OBJ Exporter v0.97b - (c)2007 guruware
# File Created: 14.11.2020 20:16:10

#
# object C
#

v  -0.2939 -1.0798 -0.0001
v  -0.2939 -1.0798 0.0001
v  0.2939 -1.0798 0.0001
v  0.2939 -1.0798 -0.0001
v  -0.2939 1.0736 -0.0001
v  -0.2939 1.0736 0.0001
v  0.2939 1.0736 -0.0001
v  0.2939 1.0736 0.0001
v  0.2939 0.4226 -0.0001
v  0.2939 0.4226 0.0001
v  1.0241 0.4226 -0.0001
v  1.0241 0.4226 0.0001
v  1.0241 1.7357 -0.0001
v  1.0241 1.7357 0.0001
v  -0.5048 1.7357 -0.0001
v  -0.5048 1.7357 0.0001
v  -1.0241 1.2580 -0.0001
v  -1.0241 1.2580 0.0001
v  -1.0241 -1.7357 -0.0001
v  -1.0241 -1.7357 0.0001
v  0.5433 -1.7357 -0.0001
v  0.5433 -1.7357 0.0001
v  1.0241 -1.2544 -0.0001
v  1.0241 -1.2544 0.0001
v  1.0241 -0.6528 -0.0001
v  1.0241 -0.6528 0.0001
v  0.2939 -0.6528 -0.0001
v  0.2939 -0.6528 0.0001
# 28 vertices

vn 0.0000 1.0000 0.0000
vn 1.0000 0.0000 -0.0000
vn 0.0000 -1.0000 -0.0000
vn -1.0000 0.0000 -0.0000
vn -0.6770 0.7360 0.0000
vn 0.7075 -0.7068 -0.0000
vn 0.0000 -0.0000 1.0000
vn 0.0000 0.0000 -1.0000
# 8 vertex normals

o C
g C
s 1
f 1//1 2//1 3//1 
f 3//1 4//1 1//1 
s 4
f 5//2 6//2 2//2 
f 2//2 1//2 5//2 
s 2
f 7//3 8//3 6//3 
f 6//3 5//3 7//3 
s 4
f 9//4 10//4 8//4 
f 8//4 7//4 9//4 
s 2
f 11//3 12//3 10//3 
f 10//3 9//3 11//3 
s 4
f 13//2 14//2 12//2 
f 12//2 11//2 13//2 
s 2
f 15//1 16//1 14//1 
f 14//1 13//1 15//1 
s 4
f 17//5 18//5 16//5 
f 16//5 15//5 17//5 
s 2
f 19//4 20//4 18//4 
f 18//4 17//4 19//4 
s 4
f 21//3 22//3 20//3 
f 20//3 19//3 21//3 
s 2
f 23//6 24//6 22//6 
f 22//6 21//6 23//6 
s 4
f 25//2 26//2 24//2 
f 24//2 23//2 25//2 
s 2
f 27//1 28//1 26//1 
f 26//1 25//1 27//1 
s 4
f 4//4 3//4 28//4 
f 28//4 27//4 4//4 
s 512
f 26//7 28//7 3//7 
f 8//7 10//7 12//7 
f 8//7 12//7 14//7 
f 6//7 8//7 14//7 
f 6//7 14//7 16//7 
f 6//7 16//7 18//7 
f 2//7 6//7 18//7 
f 2//7 18//7 20//7 
f 3//7 2//7 20//7 
f 3//7 20//7 22//7 
f 3//7 22//7 24//7 
f 26//7 3//7 24//7 
f 11//8 9//8 7//8 
f 13//8 11//8 7//8 
f 13//8 7//8 5//8 
f 15//8 13//8 5//8 
f 17//8 15//8 5//8 
f 17//8 5//8 1//8 
f 19//8 17//8 1//8 
f 19//8 1//8 4//8 
f 21//8 19//8 4//8 
f 23//8 21//8 4//8 
f 25//8 23//8 4//8 
f 25//8 4//8 27//8 
# 52 faces

