# 3ds Max Wavefront OBJ Exporter v0.97b - (c)2007 guruware
# File Created: 23.01.2021 19:14:55

mtllib plus.mtl

#
# object TextPlus001
#

v  -0.9250 -5.3125 0.0005
v  -0.9250 -5.3125 -0.0005
v  0.9250 -5.3125 -0.0005
v  0.9250 -5.3125 0.0005
v  0.9250 -0.9125 -0.0005
v  0.9250 -0.9125 0.0005
v  5.3250 -0.9125 -0.0005
v  5.3250 -0.9125 0.0005
v  5.3250 0.9125 -0.0005
v  5.3250 0.9125 0.0005
v  0.9250 0.9125 -0.0005
v  0.9250 0.9125 0.0005
v  0.9250 5.3125 -0.0005
v  0.9250 5.3125 0.0005
v  -0.9250 5.3125 -0.0005
v  -0.9250 5.3125 0.0005
v  -0.9250 0.9125 -0.0005
v  -0.9250 0.9125 0.0005
v  -5.3250 0.9125 -0.0005
v  -5.3250 0.9125 0.0005
v  -5.3250 -0.9125 -0.0005
v  -5.3250 -0.9125 0.0005
v  -0.9250 -0.9125 -0.0005
v  -0.9250 -0.9125 0.0005
# 24 vertices

vn 0.0000 -1.0000 -0.0000
vn 1.0000 0.0000 -0.0000
vn 0.0000 1.0000 0.0000
vn -1.0000 0.0000 -0.0000
vn 0.0000 -0.0000 1.0000
vn 0.0000 0.0000 -1.0000
# 6 vertex normals

o TextPlus001
g TextPlus001
usemtl wire_255255255
s 1
f 1//1 2//1 3//1 
f 1//1 3//1 4//1 
s 4
f 4//2 3//2 5//2 
f 4//2 5//2 6//2 
s 2
f 6//1 5//1 7//1 
f 6//1 7//1 8//1 
s 4
f 8//2 7//2 9//2 
f 8//2 9//2 10//2 
s 2
f 10//3 9//3 11//3 
f 10//3 11//3 12//3 
s 4
f 12//2 11//2 13//2 
f 12//2 13//2 14//2 
s 2
f 14//3 13//3 15//3 
f 14//3 15//3 16//3 
s 4
f 16//4 15//4 17//4 
f 16//4 17//4 18//4 
s 2
f 18//3 17//3 19//3 
f 18//3 19//3 20//3 
s 4
f 20//4 19//4 21//4 
f 20//4 21//4 22//4 
s 2
f 22//1 21//1 23//1 
f 22//1 23//1 24//1 
s 4
f 24//4 23//4 2//4 
f 24//4 2//4 1//4 
s 512
f 20//5 22//5 24//5 
f 18//5 20//5 24//5 
f 14//5 16//5 18//5 
f 12//5 14//5 18//5 
f 12//5 18//5 24//5 
f 8//5 10//5 12//5 
f 6//5 8//5 12//5 
f 6//5 12//5 24//5 
f 4//5 6//5 24//5 
f 4//5 24//5 1//5 
f 19//6 23//6 21//6 
f 17//6 23//6 19//6 
f 13//6 17//6 15//6 
f 11//6 17//6 13//6 
f 11//6 23//6 17//6 
f 7//6 11//6 9//6 
f 5//6 11//6 7//6 
f 5//6 23//6 11//6 
f 3//6 23//6 5//6 
f 3//6 2//6 23//6 
# 44 faces

