# 3ds Max Wavefront OBJ Exporter v0.97b - (c)2007 guruware
# File Created: 14.11.2020 20:19:15

#
# object S
#

v  -0.2259 -0.6528 -0.0000
v  -0.9560 -0.6528 -0.0000
v  -0.9560 -1.7357 -0.0000
v  0.2755 1.0736 -0.0000
v  0.2755 0.7023 -0.0000
v  0.9375 0.7023 -0.0000
v  0.9375 1.7357 -0.0000
v  -0.2011 1.0736 -0.0000
v  -0.9313 1.7357 -0.0000
v  -0.2011 0.6198 -0.0000
v  -0.9313 0.3448 -0.0000
v  0.2259 -0.5272 -0.0000
v  0.9560 -0.2495 -0.0000
v  0.2259 -1.0798 -0.0000
v  0.9560 -1.7357 -0.0000
v  -0.2259 -1.0798 -0.0000
# 16 vertices

vn 0.0000 -0.0000 1.0000
# 1 vertex normals

o S
g S
s 512
f 1//1 2//1 3//1 
f 4//1 5//1 6//1 
f 4//1 6//1 7//1 
f 8//1 4//1 7//1 
f 8//1 7//1 9//1 
f 10//1 8//1 9//1 
f 10//1 9//1 11//1 
f 10//1 11//1 12//1 
f 13//1 10//1 12//1 
f 13//1 12//1 14//1 
f 15//1 13//1 14//1 
f 15//1 14//1 16//1 
f 3//1 15//1 16//1 
f 1//1 3//1 16//1 
# 14 faces

