# 3ds Max Wavefront OBJ Exporter v0.97b - (c)2007 guruware
# File Created: 14.11.2020 20:20:21

#
# object Z
#

v  0.9116 -1.7357 -0.0001
v  0.9116 -1.7357 0.0001
v  -0.9476 -1.7357 0.0001
v  -0.9476 -1.7357 -0.0001
v  0.9116 -1.0798 -0.0001
v  0.9116 -1.0798 0.0001
v  -0.0901 -1.0798 -0.0001
v  -0.0901 -1.0798 0.0001
v  0.9476 1.1856 -0.0001
v  0.9476 1.1856 0.0001
v  0.7314 1.7357 -0.0001
v  0.7314 1.7357 0.0001
v  -0.8755 1.7357 -0.0001
v  -0.8755 1.7357 0.0001
v  -0.8755 1.0736 -0.0001
v  -0.8755 1.0736 0.0001
v  0.1021 1.0736 -0.0001
v  0.1021 1.0736 0.0001
v  -0.9476 -1.1599 -0.0001
v  -0.9476 -1.1599 0.0001
# 20 vertices

vn 0.0000 -1.0000 -0.0000
vn 1.0000 0.0000 -0.0000
vn 0.0000 1.0000 0.0000
vn 0.9091 -0.4165 -0.0000
vn 0.9307 0.3657 0.0000
vn -1.0000 0.0000 -0.0000
vn -0.9050 0.4253 0.0000
vn 0.0000 -0.0000 1.0000
vn 0.0000 0.0000 -1.0000
# 9 vertex normals

o Z
g Z
s 1
f 1//1 2//1 3//1 
f 3//1 4//1 1//1 
s 4
f 5//2 6//2 2//2 
f 2//2 1//2 5//2 
s 2
f 7//3 8//3 6//3 
f 6//3 5//3 7//3 
s 4
f 9//4 10//4 8//4 
f 8//4 7//4 9//4 
s 2
f 11//5 12//5 10//5 
f 10//5 9//5 11//5 
s 4
f 13//3 14//3 12//3 
f 12//3 11//3 13//3 
s 2
f 15//6 16//6 14//6 
f 14//6 13//6 15//6 
s 4
f 17//1 18//1 16//1 
f 16//1 15//1 17//1 
s 2
f 19//7 20//7 18//7 
f 18//7 17//7 19//7 
s 4
f 4//6 3//6 20//6 
f 20//6 19//6 4//6 
s 512
f 2//8 6//8 8//8 
f 14//8 16//8 18//8 
f 12//8 14//8 18//8 
f 10//8 12//8 18//8 
f 8//8 10//8 18//8 
f 8//8 18//8 20//8 
f 8//8 20//8 3//8 
f 2//8 8//8 3//8 
f 17//9 15//9 13//9 
f 17//9 13//9 11//9 
f 17//9 11//9 9//9 
f 17//9 9//9 7//9 
f 19//9 17//9 7//9 
f 4//9 19//9 7//9 
f 1//9 4//9 7//9 
f 1//9 7//9 5//9 
# 36 faces

